<svg id='cart' fill="currentColor" xmlns="http://www.w3.org/2000/svg" viewBox="0 0 25 25"><path d="M8.878 23.924a1.562 1.562 0 1 0 0-3.123 1.562 1.562 0 0 0 0 3.123ZM18.366 23.924a1.562 1.562 0 1 0 0-3.123 1.562 1.562 0 0 0 0 3.123ZM22.587 5.44a.694.694 0 0 0-.534-.257H7.6l.451 1.388h13.091l-1.853 8.33H8.878L5.706 4.857a.694.694 0 0 0-.458-.452l-2.846-.874a.697.697 0 0 0-.41 1.332l2.492.764L7.67 15.692l-1.138.93-.09.09a1.846 1.846 0 0 0-.056 2.353 1.908 1.908 0 0 0 1.569.694H19.54a.694.694 0 1 0 0-1.388H7.844a.466.466 0 0 1-.389-.694l1.673-1.388h10.717a.695.695 0 0 0 .695-.542l2.2-9.717a.695.695 0 0 0-.153-.59Z" fill="currentColor"/></svg>