<svg width="92" height="93" viewBox="0 0 92 93" fill="none" xmlns="http://www.w3.org/2000/svg">
<g clip-path="url(#clip0_562_3222)">
<circle cx="37" cy="54.4531" r="37" fill="#46A358" fill-opacity="0.13"/>
<g clip-path="url(#clip1_562_3222)">
<path d="M28.1295 44.8103C40.7024 46.4739 53.392 46.7354 66.0232 45.5902C66.8797 45.5136 66.8886 44.1611 66.0232 44.2378C53.392 45.3829 40.7024 45.1214 28.1295 43.4578C27.2775 43.3451 27.282 44.7021 28.1295 44.8103Z" fill="black" fill-opacity="0.64"/>
<path d="M31.0304 90.4836C36.4649 91.1779 41.9353 91.516 47.4147 91.4394C52.2349 91.3718 57.925 91.5836 62.4448 89.6766C63.2295 89.343 62.8843 88.0356 62.0861 88.3737C57.4497 90.3303 51.5085 90.0643 46.5493 90.0959C41.3569 90.132 36.1779 89.7893 31.0259 89.1311C30.1739 89.0229 30.1784 90.3754 31.0304 90.4836Z" fill="black" fill-opacity="0.64"/>
<path d="M27.6047 43.7696C21.3317 49.6214 18.4082 58.345 19.0987 66.8522C19.4529 71.2478 20.6905 75.5216 22.5513 79.507C24.2463 83.1407 26.7438 88.3478 30.4924 90.2368C31.2636 90.6245 31.9452 89.4613 31.1695 89.0691C27.681 87.3109 25.309 82.248 23.7127 78.8262C21.8563 74.8364 20.6412 70.5039 20.3901 66.0993C19.9417 58.1601 22.7128 50.1759 28.5598 44.7254C29.1965 44.1348 28.2414 43.179 27.6047 43.7696Z" fill="black" fill-opacity="0.64"/>
<path d="M65.5478 45.4058C72.1661 49.576 72.7893 58.57 72.6279 65.6526C72.4486 73.5512 71.4755 86.0662 62.0862 88.3745C61.2477 88.5819 61.6019 89.8848 62.4449 89.6774C72.2468 87.27 73.6547 74.8496 73.9507 66.4911C74.2242 58.6692 73.5337 48.8411 66.2248 44.2381C65.4895 43.7783 64.8169 44.9459 65.5478 45.4058Z" fill="black" fill-opacity="0.64"/>
<path d="M32.5774 44.8192C27.6406 50.1615 25.4614 59.0835 26.2954 66.2382C26.7797 70.3993 28.089 74.5289 29.062 78.5909C30.0395 82.6619 31.0484 86.7014 33.2634 90.2945C33.7208 91.0339 34.8821 90.3531 34.4248 89.6138C32.3442 86.2415 31.3757 82.4726 30.4565 78.654C29.5687 74.9753 28.5329 71.292 27.8468 67.5726C26.5465 60.4901 28.5822 51.1308 33.528 45.7749C34.1154 45.1347 33.1648 44.179 32.5774 44.8192Z" fill="black" fill-opacity="0.64"/>
<path d="M39.2407 45.3831C35.5638 51.8931 33.6313 59.2867 33.7299 66.7795C33.7792 70.3771 34.2904 73.9793 35.2679 77.4417C36.4831 81.7381 38.3304 85.8136 39.1375 90.2272C39.2945 91.0838 40.5903 90.7186 40.4334 89.8666C39.7294 86.003 38.2363 82.4053 37.048 78.6815C35.8957 75.0658 35.2051 71.3374 35.0885 67.5369C34.8554 60.0216 36.7117 52.5964 40.402 46.0638C40.8325 45.3064 39.6711 44.6257 39.2407 45.3831Z" fill="black" fill-opacity="0.64"/>
<path d="M43.2043 46.6763C44.4822 54.1872 42.9308 61.7115 43.0608 69.2539C43.1191 72.6983 43.8858 75.9037 44.3342 79.2939C44.8006 82.8149 44.0024 86.4351 43.5675 89.9291C43.4599 90.7901 44.8051 90.7811 44.9127 89.9291C45.3521 86.4036 46.1458 82.7563 45.6794 79.2038C45.2041 75.5701 44.4015 72.1257 44.397 68.4289C44.388 61.0308 45.7512 53.6867 44.5001 46.3202C44.3522 45.4636 43.0563 45.8242 43.2043 46.6763Z" fill="black" fill-opacity="0.64"/>
<path d="M48.2489 46.0492C50.6119 52.8342 50.8989 59.9934 51.1365 67.112C51.3966 74.8437 51.011 82.4538 49.5761 90.0638C49.4147 90.9159 50.7105 91.2811 50.872 90.4245C52.3292 82.6972 52.7462 74.961 52.4817 67.112C52.2396 59.8762 51.9436 52.5817 49.5447 45.6885C49.2622 44.877 47.9619 45.2286 48.2489 46.0492Z" fill="black" fill-opacity="0.64"/>
<path d="M53.9074 46.082C54.4051 47.6103 55.4813 48.6292 56.3063 49.9727C57.2479 51.5055 57.7636 53.2412 58.0416 55.0084C58.6469 58.8676 58.36 62.907 58.351 66.7977C58.342 71.031 58.6649 75.5077 57.5753 79.6419C56.6157 83.271 54.4141 86.3998 53.6787 90.1056C53.5083 90.9577 54.8042 91.3184 54.9746 90.4663C55.7638 86.499 58.203 83.1403 59.0639 79.191C59.9473 75.1516 59.6872 70.9047 59.6962 66.7977C59.7051 63.0017 59.9338 59.12 59.4361 55.3466C59.2164 53.6785 58.8397 52.0284 58.1223 50.5046C57.3242 48.805 55.7862 47.5111 55.2078 45.7258C54.9342 44.9008 53.6339 45.2525 53.9074 46.082Z" fill="black" fill-opacity="0.64"/>
<path d="M60.4496 45.8704C63.122 48.3951 64.4089 52.4255 65.3729 55.906C66.3773 59.5306 66.0411 63.3988 65.8169 67.1091C65.364 74.638 64.0995 82.1579 60.5079 88.8662C60.0953 89.6326 61.2567 90.3179 61.6692 89.547C65.4985 82.3923 66.7764 74.3495 67.2024 66.3247C67.4176 62.2852 67.5925 58.3404 66.3325 54.4498C65.2384 51.073 64.0322 47.4033 61.4002 44.9102C60.7724 44.3196 59.8173 45.2754 60.4496 45.8704Z" fill="black" fill-opacity="0.64"/>
<path d="M32.4697 49.252C32.3307 49.6082 32.1783 49.9598 32.0124 50.307C31.8016 50.7443 32.0482 51.3439 32.5953 51.3259C32.9854 51.3123 33.2948 51.1365 33.5728 50.8705C33.6625 50.7849 33.7521 50.6947 33.8373 50.609C33.9494 50.4963 33.8015 50.6767 33.8867 50.573C33.8687 50.6 33.7746 50.591 33.8598 50.6C33.6445 50.316 33.4293 50.0275 33.2096 49.7434C33.1513 50.0455 33.0885 50.3475 33.0302 50.6541C32.9585 51.0103 33.1334 51.3845 33.501 51.4882C33.8329 51.5783 34.2588 51.3754 34.3306 51.0148C34.3889 50.7127 34.4516 50.4107 34.5099 50.1041C34.5996 49.6443 34.3171 49.2926 33.8598 49.2475C33.4876 49.2115 33.1513 49.4098 32.8867 49.6533C32.7926 49.7389 32.7119 49.8291 32.6177 49.9148C32.5863 49.9418 32.5594 49.9689 32.528 49.9959C32.5415 49.9824 32.5549 49.9734 32.5684 49.9598C32.5011 49.9959 32.5011 50.0004 32.5774 49.9689C32.5011 49.9869 32.5056 49.9914 32.5908 49.9689C32.7836 50.307 32.9764 50.6451 33.1737 50.9877C33.3889 50.5369 33.5862 50.0771 33.7656 49.6127C33.8956 49.2701 33.6221 48.8688 33.2948 48.7787C32.9181 48.675 32.6043 48.9094 32.4697 49.252Z" fill="black" fill-opacity="0.64"/>
<path d="M29.1382 57.3428C29.0754 57.7215 29.0127 58.1002 28.9499 58.4744C28.9006 58.7764 28.9813 59.074 29.2593 59.2363C29.5059 59.3806 29.8781 59.3535 30.0754 59.1326C30.2054 58.9838 30.3354 58.835 30.4655 58.6863C30.5506 58.5871 30.6717 58.4022 30.7748 58.3481C30.6627 58.3797 30.5506 58.4113 30.4341 58.4383C30.4565 58.4338 30.4834 58.4338 30.5058 58.4293C30.3937 58.3977 30.2816 58.3662 30.165 58.3391C30.183 58.3527 30.2009 58.3662 30.2188 58.3797C30.1067 58.1858 29.9946 57.992 29.887 57.7936C29.9229 58.1813 29.8153 58.6141 29.7704 59.0064C29.7077 59.5699 30.3758 59.7773 30.7838 59.5924C31.3129 59.3445 31.6672 58.8891 31.8555 58.3436C31.4788 58.4428 31.1067 58.542 30.73 58.6412C30.7166 58.5555 30.7031 58.4699 30.6897 58.3842C30.4699 59.2273 31.7703 59.5879 31.9855 58.7449C32.0842 58.3617 31.9945 57.9424 31.6806 57.6854C31.277 57.3563 30.7345 57.4735 30.5551 57.983C30.4744 58.2084 30.3085 58.3256 30.1023 58.4248C30.4386 58.6186 30.7748 58.8125 31.1156 59.0109C31.1829 58.4068 31.5057 57.3338 30.6807 57.1039C29.9857 56.91 29.4969 57.7395 29.1203 58.1768C29.4969 58.3977 29.8691 58.6141 30.2457 58.835C30.3085 58.4563 30.3713 58.0777 30.4341 57.7035C30.4924 57.3428 30.3399 56.9731 29.9633 56.8694C29.6449 56.7838 29.1965 56.9821 29.1382 57.3428Z" fill="black" fill-opacity="0.64"/>
<path d="M28.5597 65.4906C28.6046 66.0225 28.6539 66.5545 28.6987 67.082C28.766 67.8349 29.7749 68.0107 30.0215 67.2623C30.156 66.8476 30.3443 66.4734 30.582 66.1037C30.174 66.0496 29.7614 65.9955 29.3534 65.9414C29.5103 66.3336 29.6179 66.7348 29.6762 67.1586C29.7435 67.6365 30.3219 67.7177 30.6627 67.5644C30.8331 67.4877 30.9721 67.339 31.0618 67.1767C31.1021 67.1045 31.1335 67.0189 31.1604 66.9422C31.1739 66.9017 31.1828 66.8611 31.1963 66.8205C31.2187 66.7529 31.2097 66.7574 31.1784 66.834C31.0797 66.8926 30.9811 66.9512 30.8824 67.0099C30.9048 67.0008 30.9317 66.9963 30.9542 66.9873C30.8331 66.9873 30.7165 66.9873 30.5954 66.9873C30.5865 66.9828 30.5775 66.9783 30.573 66.9693C30.4923 66.8881 30.4116 66.807 30.3309 66.7258C30.3443 66.7439 30.3533 66.7619 30.3668 66.7799C30.3443 66.6041 30.3219 66.4328 30.2995 66.257C30.295 66.2795 30.295 66.3021 30.2905 66.3201C30.2412 66.6807 30.3757 67.0459 30.7614 67.1541C31.0752 67.2398 31.5416 67.0459 31.5909 66.6807C31.6312 66.3877 31.6088 66.1217 31.3936 65.9008C31.2142 65.7205 30.9407 65.6348 30.6896 65.6619C30.4295 65.6934 30.2009 65.8467 30.0619 66.0676C30.0036 66.1623 29.9229 66.293 29.9184 66.4012C29.9139 66.559 29.8466 66.4463 29.9901 66.3832C30.3174 66.5184 30.6493 66.6537 30.9766 66.7889C30.9183 66.3697 30.8107 65.9684 30.6537 65.5717C30.4385 65.0397 29.757 64.8864 29.4251 65.4094C29.1292 65.8738 28.9005 66.3697 28.7301 66.8881C29.1696 66.9467 29.609 67.0099 30.0529 67.0685C30.0081 66.5365 29.9587 66.0045 29.9139 65.477C29.8825 65.1119 29.6269 64.8008 29.2413 64.8008C28.896 64.8143 28.5284 65.1254 28.5597 65.4906Z" fill="black" fill-opacity="0.64"/>
<path d="M30.1786 75.0291C30.2234 75.809 30.6135 76.4897 31.2906 76.8865C31.739 77.1435 32.295 76.8143 32.304 76.3004C32.3084 75.9037 32.3981 75.5385 32.5506 75.1733C32.1739 75.2725 31.8018 75.3717 31.4251 75.4709C31.6089 75.6963 31.8062 75.8947 32.026 76.0795C32.3847 76.3815 33.0393 76.3229 33.1514 75.7819C33.1783 75.6602 33.2097 75.5565 33.2501 75.4438C32.8734 75.543 32.5013 75.6422 32.1246 75.7414C32.165 75.7188 32.1874 75.7459 32.1829 75.818C32.3264 76.1561 32.8196 76.2283 33.1021 76.0615C33.4474 75.8586 33.4877 75.4754 33.3442 75.1373C33.2859 75.002 33.1918 74.8803 33.0752 74.7856C32.6582 74.4565 32.147 74.5782 31.9497 75.0832C31.9049 75.1959 31.8735 75.3041 31.8511 75.4213C32.2277 75.3221 32.5999 75.2229 32.9766 75.1237C32.7568 74.9389 32.5595 74.736 32.3757 74.5151C32.017 74.0733 31.4251 74.4024 31.2502 74.8127C31.0529 75.286 30.9633 75.7864 30.9543 76.3004C31.2906 76.1065 31.6269 75.9127 31.9677 75.7143C31.7076 75.5655 31.5372 75.3311 31.5193 75.0245C31.4744 74.168 30.1292 74.1589 30.1786 75.0291Z" fill="black" fill-opacity="0.64"/>
<path d="M32.9497 84.3034C33.1066 84.7092 33.2949 85.0833 33.5505 85.4395C33.9496 85.9895 34.7433 85.7866 34.806 85.0969C34.8105 85.0563 34.8823 84.5559 34.8554 84.5333C34.6625 84.6551 34.4742 84.7768 34.2814 84.8985C34.3263 84.9616 34.3666 85.0202 34.4159 85.0788C34.5863 85.2952 34.7971 85.4801 35.0706 85.5567C35.2813 85.6108 35.5279 85.5838 35.7118 85.4666C35.8329 85.3854 35.918 85.2907 35.9808 85.16C36.0032 85.1059 36.0257 85.0518 36.0481 84.9977C36.1512 84.6731 35.9539 84.619 35.4607 84.8354C35.7297 85.6559 37.0301 85.3043 36.7565 84.4747C36.5682 83.9067 36.0212 83.537 35.4248 83.7624C35.1827 83.8571 34.9719 84.0374 34.8554 84.2718C34.8195 84.344 34.6894 84.6551 34.7343 84.7452C34.9944 84.5964 35.2499 84.4432 35.51 84.2944C35.4741 84.2493 35.4383 84.2087 35.4069 84.1637C35.1917 83.7263 34.5684 83.4784 34.12 83.6407C33.4878 83.8661 33.5147 84.5423 33.4653 85.1014C33.8823 84.9887 34.2993 84.876 34.7208 84.7587C34.537 84.5063 34.3711 84.2403 34.2545 83.9473C33.9317 83.1448 32.6313 83.4919 32.9497 84.3034Z" fill="black" fill-opacity="0.64"/>
<path d="M40.1374 49.4356C39.6532 49.8007 39.2496 50.2335 38.9851 50.7881C38.6398 51.5094 39.4424 52.0774 40.0433 51.6086C40.1868 51.4959 40.3303 51.3832 40.4737 51.2705C40.5365 51.2209 40.5993 51.1713 40.6666 51.1217C40.6979 51.0946 40.7293 51.0721 40.7607 51.045C40.8728 50.9639 40.8145 50.9774 40.5858 51.0811C40.4737 51.0495 40.3616 51.018 40.2451 50.9909C40.2585 51 40.272 51.009 40.2854 51.018C40.2047 50.9368 40.124 50.8557 40.0433 50.7745C40.0298 50.7159 40.0119 50.6618 39.9984 50.6032C40.0029 50.5401 40.0029 50.5311 39.9895 50.5852C39.9581 50.6077 39.9491 50.761 39.9491 50.7836C39.9177 50.9909 39.9357 51.1938 40.0433 51.3832C40.1419 51.5545 40.3168 51.7078 40.5096 51.7574C40.5903 51.7799 40.6935 51.7889 40.7787 51.7889C40.8594 51.7889 40.9311 51.7754 41.0028 51.7483C41.097 51.7213 41.0656 51.7123 40.9042 51.7213C40.8056 51.6627 40.7069 51.6041 40.6083 51.5455C40.6217 51.559 40.6352 51.5725 40.6486 51.586C40.5903 51.4869 40.532 51.3877 40.4737 51.2885C40.4782 51.302 40.4827 51.32 40.4872 51.3336C40.5096 51.1577 40.532 50.9864 40.5545 50.8106C40.5455 50.8241 40.541 50.8377 40.532 50.8512C40.124 51.6176 41.2853 52.3029 41.6934 51.5319C41.8683 51.2073 41.8279 50.8422 41.5544 50.5852C41.4109 50.4499 41.2181 50.3688 41.0208 50.3643C40.9087 50.3598 40.7787 50.4319 40.68 50.4229C40.7921 50.4544 40.9042 50.486 41.0208 50.5131C41.0029 50.4995 40.9849 50.486 40.9715 50.477C41.0522 50.5581 41.1329 50.6393 41.2136 50.7204C41.2046 50.7024 41.1957 50.6844 41.1867 50.6663C41.2181 50.779 41.2495 50.8918 41.2764 51.009C41.2674 50.9233 41.2809 50.9684 41.3122 50.8422C41.3481 50.6844 41.3526 50.5131 41.3167 50.3508C41.2405 50.0262 40.9984 49.7917 40.6755 49.7331C40.3392 49.67 40.1105 49.8458 39.855 50.0442C39.5994 50.2426 39.3438 50.4454 39.0882 50.6438C39.4424 50.9188 39.7922 51.1893 40.1464 51.4643C40.3078 51.1307 40.5141 50.8241 40.8145 50.5987C41.106 50.3823 41.2539 50.0126 41.0567 49.6745C40.8908 49.3905 40.4334 49.2192 40.1374 49.4356Z" fill="black" fill-opacity="0.64"/>
<path d="M37.5053 57.0468C37.3932 57.5878 37.2856 58.1288 37.1735 58.6743C37.0345 59.3641 37.7788 59.7608 38.299 59.3325C38.4514 59.2063 38.5859 59.0485 38.6846 58.8772C38.7518 58.76 38.8325 58.521 38.8684 58.4624C38.7877 58.5436 38.707 58.6247 38.6263 58.7059C38.6487 58.6923 38.6666 58.6788 38.6891 58.6608C38.577 58.6923 38.4649 58.7239 38.3483 58.7509C38.3752 58.7464 38.4021 58.7464 38.429 58.7419C38.3169 58.7104 38.2048 58.6788 38.0882 58.6518C37.9806 58.6022 37.9761 58.4263 38.0075 58.6563C38.0165 58.7149 38.0299 58.7645 38.0479 58.8186C38.1106 59.0214 38.2227 59.2018 38.3931 59.328C38.5501 59.4452 38.7339 59.5083 38.9312 59.5038C39.0523 59.4993 39.1644 59.4678 39.272 59.4137C39.3303 59.3911 39.3796 59.3596 39.4244 59.319C39.541 59.2378 39.5096 59.2424 39.3347 59.3235C39.2226 59.2919 39.1105 59.2604 38.994 59.2333C39.0119 59.2424 39.0164 59.2514 39.0298 59.2874C39.3168 60.1034 40.6171 59.7518 40.3257 58.9268C40.2001 58.5706 40.0163 58.2415 39.671 58.0657C39.4917 57.971 39.2675 57.944 39.0702 57.989C38.8729 58.0341 38.7563 58.1649 38.5859 58.246C38.698 58.2145 38.8101 58.1829 38.9267 58.1558C38.9043 58.1558 38.8774 58.1558 38.855 58.1558C38.9671 58.1874 39.0792 58.219 39.1957 58.246C39.3168 58.4579 39.3527 58.4895 39.3034 58.3407C39.2944 58.2821 39.2854 58.2235 39.2765 58.1649C39.2451 58.0477 39.1957 57.9259 39.133 57.8267C38.9671 57.5653 38.6935 57.3939 38.3841 57.3985C38.0792 57.403 37.8012 57.5788 37.6577 57.8448C37.5367 58.0702 37.5457 58.2054 37.3394 58.3768C37.716 58.5977 38.0882 58.8141 38.4649 59.035C38.577 58.494 38.6846 57.953 38.7967 57.412C38.976 56.5554 37.6802 56.1947 37.5053 57.0468Z" fill="black" fill-opacity="0.64"/>
<path d="M36.9851 63.9575C36.8461 64.6834 36.7565 65.4137 36.734 66.1486C36.7161 66.6625 37.3169 66.9871 37.7474 66.7347C37.9447 66.6174 38.0882 66.4596 38.1958 66.2568C38.2362 66.1801 38.3527 66.0043 38.3303 65.9367C38.3258 65.9277 38.2855 65.9863 38.3034 65.9773C38.1913 66.0088 38.0792 66.0404 37.9626 66.0674C37.9537 66.0719 37.9402 66.0719 37.9312 66.0764C37.8505 65.9953 37.7698 65.9141 37.6891 65.833C37.7653 65.9322 37.7564 65.9232 37.7653 66.0268C37.8147 66.5814 38.4783 66.9511 38.9132 66.5047C38.9626 66.4506 39.0119 66.401 39.0657 66.3514C38.9715 66.3965 38.8729 66.3875 38.7787 66.3334C38.7204 66.2342 38.6621 66.135 38.6038 66.0359C38.6128 66.0629 38.6218 66.09 38.6352 66.117C38.7608 66.4596 39.0926 66.6941 39.4648 66.5904C39.7921 66.5002 40.0611 66.1035 39.9356 65.7564C39.5858 64.8006 38.568 64.9223 37.9626 65.549C38.3438 65.7068 38.7294 65.8691 39.1105 66.0268C39.0567 65.3731 38.7339 64.6653 37.9626 64.7149C37.6488 64.733 37.3708 64.9178 37.2048 65.1838C37.1466 65.2785 37.1062 65.3867 37.0614 65.4904C37.012 65.6031 36.9268 65.6436 37.0658 65.5625C37.4021 65.7564 37.7384 65.9502 38.0792 66.1486C38.0972 65.5309 38.1644 64.9223 38.281 64.3137C38.4469 63.4661 37.151 63.1055 36.9851 63.9575Z" fill="black" fill-opacity="0.64"/>
<path d="M37.6532 71.6806C37.8056 72.2847 37.9895 72.8753 38.2047 73.4569C38.3796 73.9302 38.9401 74.1286 39.3302 73.7544C39.5006 73.5876 39.6171 73.3937 39.6754 73.1593C39.6979 73.0646 39.7158 72.9519 39.7203 72.8572C39.7337 72.5687 39.7023 72.8077 39.7292 72.7941C39.6171 72.8257 39.505 72.8572 39.3885 72.8843C39.4198 72.8843 39.4468 72.8798 39.4781 72.8798C39.366 72.8482 39.2539 72.8167 39.1374 72.7896C39.0477 72.749 39.0746 72.7085 39.1463 72.8347C39.1822 72.8978 39.2136 72.9519 39.2584 73.0105C39.3974 73.1909 39.5678 73.3126 39.7965 73.3441C39.9983 73.3712 40.1911 73.3216 40.3615 73.2044C40.4556 73.1368 40.5408 73.0601 40.6036 72.9609C40.6305 72.9068 40.6574 72.8527 40.6798 72.7986C40.7695 72.6228 40.6933 72.6679 40.4512 72.9384C40.3301 72.9384 40.2135 72.9384 40.0924 72.9384C40.0386 72.8933 39.9893 72.8437 39.9355 72.7986C39.9041 72.6859 39.8727 72.5732 39.8458 72.456C39.8458 72.4831 39.8458 72.5101 39.8458 72.5372C39.8324 73.4073 41.1776 73.4073 41.191 72.5372C41.2 72.0818 40.8861 71.7257 40.4512 71.6355C40.218 71.5859 39.9848 71.6355 39.792 71.7752C39.6979 71.8429 39.6216 71.9195 39.5589 72.0142C39.5454 72.0412 39.5319 72.0728 39.514 72.0998C39.3974 72.3253 39.4288 72.3208 39.6127 72.0863C39.7248 72.0548 39.8369 72.0232 39.9534 71.9962C39.931 72.0007 39.9086 72.0007 39.8862 72.0052C39.9983 72.0367 40.1104 72.0683 40.227 72.0953C40.4198 72.19 40.3211 72.1585 40.2494 72.0322C40.1956 71.933 40.1238 71.8384 40.0431 71.7662C39.7875 71.5363 39.4512 71.4777 39.1329 71.5904C38.8773 71.6806 38.6845 71.8789 38.5544 72.1089C38.4827 72.2396 38.4468 72.3703 38.4199 72.5146C38.4065 72.5777 38.4199 72.7581 38.3796 72.7986C38.7562 72.8978 39.1284 72.997 39.505 73.0962C39.2898 72.5146 39.106 71.9195 38.9535 71.3199C38.7338 70.4814 37.4379 70.8375 37.6532 71.6806Z" fill="black" fill-opacity="0.64"/>
<path d="M38.3302 78.1412C38.5724 78.8581 38.8818 79.5478 39.2629 80.197C39.5364 80.6614 40.1418 80.6073 40.4242 80.197C40.5005 80.0843 40.5543 79.9671 40.5901 79.8364C40.5946 79.7958 40.5991 79.7597 40.6081 79.7192C40.6798 79.4577 40.617 79.4667 40.4108 79.7507C40.2897 79.7507 40.1731 79.7507 40.0521 79.7507C39.8637 79.6921 39.9489 79.7056 40.0476 79.8138C40.1193 79.8905 40.209 79.9716 40.3032 80.0257C40.496 80.1339 40.7247 80.1745 40.9444 80.1565C41.4466 80.1204 41.7918 79.7868 41.9577 79.3314C42.2582 78.5154 40.9578 78.1593 40.6619 78.9708C40.7471 78.7454 40.9578 78.8716 40.922 78.7634C40.8951 78.6867 40.7381 78.5831 40.6664 78.5425C40.4467 78.4163 40.1821 78.3892 39.9445 78.4703C39.7247 78.5425 39.5499 78.7093 39.4378 78.9122C39.3391 79.0925 39.366 79.363 39.2584 79.5163C39.644 79.5163 40.0341 79.5163 40.4198 79.5163C40.0924 78.9618 39.8279 78.3937 39.6216 77.7851C39.3526 76.9646 38.0522 77.3162 38.3302 78.1412Z" fill="black" fill-opacity="0.64"/>
<path d="M40.1014 85.8544C40.1058 86.2286 40.1597 86.6028 40.2762 86.9544C40.3614 87.2114 40.5632 87.4008 40.8367 87.4368C41.0833 87.4684 41.3927 87.3557 41.5048 87.1122C41.5811 86.9499 41.6573 86.7876 41.7335 86.6298C41.7694 86.5532 41.8053 86.4811 41.8367 86.4044C41.8546 86.3683 41.8725 86.3278 41.8905 86.2917C41.9263 86.2241 41.9263 86.2241 41.8905 86.2917C41.7918 86.3503 41.6932 86.4089 41.5945 86.4675C41.608 86.463 41.6259 86.454 41.6394 86.4495C41.5183 86.4495 41.4017 86.4495 41.2806 86.4495C41.2582 86.4405 41.2313 86.427 41.2089 86.4179C41.1282 86.3368 41.0475 86.2556 40.9668 86.1745C40.8995 86.0618 40.9623 86.1565 40.9892 86.2331C41.0116 86.3052 41.0385 86.3729 41.0609 86.445C41.1103 86.5847 41.1596 86.729 41.2044 86.8688C41.321 87.2159 41.6663 87.4413 42.0339 87.3421C42.3658 87.252 42.6213 86.8552 42.5048 86.5081C42.3119 85.9491 42.1505 85.0294 41.3703 85.1331C40.765 85.2142 40.5632 85.9536 40.339 86.4315C40.7471 86.4856 41.1596 86.5397 41.5676 86.5938C41.4824 86.3278 41.4421 86.1114 41.4376 85.8499C41.4331 85.4982 41.1327 85.1556 40.765 85.1736C40.4108 85.1917 40.0969 85.4757 40.1014 85.8544Z" fill="black" fill-opacity="0.64"/>
<path d="M46.2803 86.675C46.2444 86.9815 46.2085 87.2926 46.1727 87.5992C46.1368 87.8877 46.4058 88.1808 46.6659 88.2529C46.9708 88.3386 47.2533 88.1898 47.4237 87.9418C47.5448 87.766 47.6658 87.5947 47.7869 87.4189C47.8407 87.3377 47.899 87.2611 47.9528 87.1799C47.9752 87.1484 47.9976 87.1168 48.02 87.0852C48.1187 86.95 48.1052 86.959 47.9842 87.1123C47.8721 87.1438 47.76 87.1754 47.6434 87.2025C47.6658 87.2025 47.6838 87.2025 47.7062 87.2025C47.5941 87.1709 47.482 87.1393 47.3654 87.1123C47.2309 86.8779 47.186 86.8328 47.2309 86.977C47.2443 87.0311 47.2533 87.0897 47.2667 87.1438C47.2892 87.2566 47.3116 87.3648 47.3385 87.4775C47.3878 87.7119 47.4102 87.9869 47.5313 88.1988C47.6479 88.3972 47.8407 88.5685 48.0649 88.6316C48.4102 88.7263 48.6926 88.5504 48.8944 88.2799C49.1141 87.9869 48.9393 87.5225 48.6523 87.3557C48.307 87.1529 47.9528 87.3061 47.7331 87.5992C47.7241 87.6127 47.7151 87.6262 47.7062 87.6353C47.899 87.5225 48.0918 87.4098 48.2891 87.3016C48.2756 87.3016 48.2622 87.3061 48.2487 87.3061C48.3608 87.3377 48.4729 87.3693 48.5895 87.3963C48.7061 87.4549 48.7778 87.784 48.7106 87.4504C48.6926 87.3557 48.6702 87.2656 48.6523 87.1709C48.6164 87.0041 48.585 86.8373 48.5492 86.6705C48.4684 86.3188 48.2577 85.9762 47.89 85.8725C47.482 85.7598 47.1591 85.9942 46.9305 86.3008C46.7018 86.6119 46.4865 86.932 46.2668 87.2475C46.6838 87.3602 47.1008 87.473 47.5223 87.5902C47.5582 87.2836 47.5941 86.9725 47.6299 86.666C47.6703 86.3008 47.2892 85.9897 46.9574 85.9897C46.5583 85.9987 46.3251 86.3143 46.2803 86.675Z" fill="black" fill-opacity="0.64"/>
<path d="M46.926 74.3268C46.7601 75.0481 46.6794 75.7875 46.6929 76.5268C46.7018 77.1625 47.6345 77.4916 47.9484 76.8695C48.0829 76.599 48.2174 76.333 48.3519 76.0625C48.4506 75.8641 48.5223 75.6161 48.7017 75.4764C48.603 75.535 48.5044 75.5936 48.4057 75.6522C48.4057 75.6477 48.4057 75.6432 48.4102 75.6387C48.195 75.4719 47.9797 75.3096 47.76 75.1428C47.8452 75.4629 47.9304 75.7829 48.0156 76.103C48.1232 76.5043 48.6389 76.7477 49.0021 76.5088C49.0649 76.4682 49.1276 76.4231 49.1904 76.3826C49.9078 75.9047 49.2352 74.7325 48.5133 75.2149C48.4506 75.2555 48.3878 75.3006 48.325 75.3411C48.6523 75.4764 48.9841 75.6116 49.3115 75.7469C49.2263 75.4268 49.1411 75.1067 49.0559 74.7866C48.9797 74.5026 48.7017 74.2862 48.4057 74.2907C47.4596 74.3087 47.1368 75.4899 46.787 76.1932C47.204 76.3059 47.621 76.4186 48.0425 76.5358C48.0335 75.9092 48.0874 75.3051 48.2264 74.6919C48.4147 73.8399 47.1188 73.4792 46.926 74.3268Z" fill="black" fill-opacity="0.64"/>
<path d="M45.6437 64.2089C45.675 64.7409 45.7019 65.2684 45.7333 65.8004C45.7692 66.4676 46.6212 66.7246 46.9888 66.143C47.2489 65.7282 47.509 65.318 47.769 64.9032C47.3834 64.9032 46.9933 64.9032 46.6077 64.9032C46.7019 65.0655 46.7602 65.2143 46.7691 65.4036C46.8005 65.9987 47.4776 66.2827 47.917 65.8815C48.2578 65.5749 48.4775 65.2053 48.6434 64.777C48.3161 64.9122 47.9843 65.0475 47.6569 65.1827C47.6569 65.1917 47.6569 65.2008 47.6525 65.2053C47.5942 65.1061 47.5359 65.0069 47.4776 64.9077C47.491 64.9348 47.5 64.9663 47.5135 64.9934C47.6525 65.3315 47.9574 65.5704 48.343 65.4667C48.6569 65.3811 48.9528 64.9753 48.8138 64.6327C48.6972 64.3577 48.5762 64.1909 48.334 64.0106C47.9529 63.7265 47.4866 64.0511 47.3476 64.4163C47.2668 64.6237 47.1278 64.777 46.9664 64.9257C47.3476 65.0835 47.7332 65.2458 48.1143 65.4036C48.0919 64.9798 47.9843 64.5876 47.769 64.2224C47.5045 63.7761 46.8767 63.7942 46.6077 64.2224C46.3476 64.6372 46.0876 65.0475 45.8275 65.4622C46.2445 65.5749 46.6615 65.6877 47.083 65.8049C47.0516 65.2729 47.0247 64.7454 46.9933 64.2134C46.9395 63.3433 45.5943 63.3388 45.6437 64.2089Z" fill="black" fill-opacity="0.64"/>
<path d="M46.0069 55.2698C45.9666 55.6124 45.9486 55.9551 45.9576 56.2977C45.971 56.7665 46.536 57.1993 46.971 56.8838C47.1952 56.7215 47.3342 56.5366 47.4104 56.2706C47.4283 56.2075 47.4463 56.1354 47.4552 56.0723C47.4642 56.0137 47.5001 56.0092 47.4507 56.0542C47.2176 56.2706 46.971 56.5817 46.5988 56.1309C46.6391 56.1805 46.6257 56.176 46.5988 56.1174C46.6302 56.185 46.6526 56.2616 46.684 56.3292C46.7378 56.4465 46.8185 56.5501 46.9082 56.6403C47.1862 56.9153 47.5987 56.9694 47.935 56.7756C48.2534 56.5952 48.3565 56.1624 48.1771 55.8514C47.9888 55.5313 47.5763 55.4276 47.2579 55.6079C47.2445 55.6169 47.2265 55.6259 47.2131 55.635C47.3252 55.6034 47.4373 55.5718 47.5539 55.5448C47.5897 55.5403 47.9126 55.7206 47.8857 55.7296C47.9036 55.7657 47.9036 55.7657 47.8902 55.7341C47.8767 55.6981 47.8633 55.662 47.8453 55.6259C47.7915 55.4952 47.7287 55.3735 47.6301 55.2653C47.4104 55.0354 47.0696 54.9226 46.7602 55.0218C46.4688 55.112 46.2759 55.3464 46.1818 55.6305C46.1594 55.6936 46.1504 55.7567 46.1325 55.8243C46.1235 55.8559 46.1145 55.8829 46.11 55.9145C46.0921 55.9731 46.0921 55.9731 46.1145 55.9145C46.1414 55.8288 46.1997 55.7612 46.2894 55.7161C46.6257 55.91 46.962 56.1038 47.3028 56.3022C47.2938 55.9596 47.3117 55.6169 47.3521 55.2743C47.3969 54.9226 47.0113 54.5845 46.6795 54.598C46.2804 54.6161 46.0562 54.8956 46.0069 55.2698Z" fill="black" fill-opacity="0.64"/>
<path d="M45.5943 48.3357C45.4687 48.8316 45.5315 49.341 45.796 49.7783C46.1099 50.3103 46.8318 50.148 47.0246 49.616C47.0964 49.4177 46.9888 49.7378 47.056 49.5349C47.0829 49.4582 47.1054 49.4943 47.0381 49.5259C46.8318 49.6341 46.5538 49.5619 46.4911 49.2914C46.5763 49.6476 46.9753 49.8595 47.3206 49.7648C47.6793 49.6656 47.8766 49.2914 47.7914 48.9308C47.6703 48.4168 47.1143 48.1418 46.6166 48.259C46.1279 48.3808 45.8902 48.809 45.7288 49.2509C46.1368 49.1968 46.5493 49.1427 46.9574 49.0886C46.8901 48.9713 46.8812 48.9804 46.8677 48.8406C46.8767 48.9127 46.8722 48.8226 46.8722 48.8C46.8812 48.6017 46.8453 48.8812 46.8901 48.6873C46.9753 48.3447 46.778 47.9389 46.4193 47.8533C46.0741 47.7811 45.6884 47.966 45.5943 48.3357Z" fill="black" fill-opacity="0.64"/>
<path d="M26.3671 46.7397C26.1698 47.0012 25.9904 47.2762 25.8335 47.5647C25.569 48.0381 26.0173 48.7774 26.5913 48.5565C26.7975 48.4799 26.9993 48.3987 27.2056 48.3221C26.9321 48.1643 26.6541 48.0065 26.3761 47.8487C26.4119 47.9524 26.4299 48.02 26.4254 48.1237C26.4209 48.4664 26.7393 48.8315 27.098 48.8C27.4343 48.7729 27.7212 48.6918 28.0217 48.5475C28.349 48.3897 28.4342 47.9163 28.2638 47.6233C28.0665 47.2852 27.6719 47.2221 27.3446 47.3799C27.2773 47.4114 27.1518 47.443 27.098 47.4475C27.3222 47.6729 27.5464 47.8983 27.7706 48.1237C27.775 47.9073 27.7437 47.6909 27.6719 47.4881C27.5598 47.168 27.2056 46.8794 26.8424 47.0147C26.6361 47.0913 26.4344 47.1725 26.2281 47.2491C26.4792 47.5782 26.7348 47.9118 26.9859 48.2409C27.1473 47.9524 27.3222 47.6774 27.5195 47.4159C27.7392 47.1229 27.5643 46.6585 27.2773 46.4917C26.941 46.2979 26.5868 46.4466 26.3671 46.7397Z" fill="black" fill-opacity="0.64"/>
<path d="M22.5602 54.3319C22.3046 54.8955 22.0849 55.4725 21.9056 56.0676C21.7935 56.4373 22.0401 56.78 22.3764 56.9017C22.6634 57.0054 22.9728 56.9423 23.2239 56.78C23.3315 56.7078 23.4032 56.6357 23.4839 56.541C23.7933 56.1713 23.3673 56.6492 23.1162 56.3381C23.0579 56.239 22.9997 56.1398 22.9414 56.0406C22.9055 55.9144 22.9324 56.1758 22.9324 56.1713C22.9458 56.275 22.9728 56.3832 23.0266 56.4779C23.1297 56.6537 23.318 56.798 23.5108 56.8521C23.874 56.9513 24.3404 56.8115 24.4973 56.4418C24.6408 56.1082 24.5959 55.716 24.2552 55.5176C23.9727 55.3508 23.4794 55.4229 23.336 55.7611C23.3494 55.743 23.3629 55.725 23.3808 55.7115C23.4794 55.6529 23.5781 55.5943 23.6767 55.5357C23.8112 55.5762 23.9458 55.6168 24.0803 55.6574C24.1386 55.7566 24.1969 55.8557 24.2552 55.9549C24.291 56.0812 24.2641 55.7701 24.2552 55.7385C24.2193 55.6033 24.1565 55.4816 24.0668 55.3824C23.9009 55.2066 23.6857 55.1029 23.4436 55.0893C23.2239 55.0803 23.0221 55.1434 22.8427 55.2697C22.7575 55.3283 22.6858 55.3959 22.6185 55.477C22.3405 55.8016 22.5333 55.5266 22.7396 55.5988C22.8965 55.8783 23.0535 56.1533 23.2104 56.4328C23.3539 55.9504 23.5243 55.4816 23.7305 55.0217C23.8785 54.6881 23.8247 54.2959 23.4884 54.0975C23.1925 53.9217 22.7082 53.9983 22.5602 54.3319Z" fill="black" fill-opacity="0.64"/>
<path d="M21.0716 62.308C20.9281 63.0834 20.9281 63.8363 21.0806 64.6117C21.1568 64.9949 21.5693 65.1392 21.9101 65.0851C22.1074 65.0535 22.2912 64.9408 22.4302 64.792C22.4885 64.7289 22.5423 64.6523 22.5917 64.5801C22.6186 64.5396 22.641 64.499 22.6634 64.4539C22.7038 64.3908 22.6903 64.3953 22.6141 64.4584C22.493 64.4584 22.3764 64.4584 22.2554 64.4584C22.2868 64.4674 22.3181 64.4765 22.3495 64.4855C22.2509 64.4269 22.1522 64.3682 22.0536 64.3096C22.0043 64.206 21.9998 64.2105 22.0446 64.3232C22.067 64.3773 22.0895 64.4314 22.1119 64.4855C22.1836 64.6207 22.2823 64.7289 22.4078 64.8101C22.7082 65.0129 22.9818 64.9994 23.3046 64.8506C23.6364 64.7019 23.7171 64.215 23.5467 63.9264C23.3494 63.5838 22.9593 63.5342 22.6275 63.683C22.6051 63.692 22.5782 63.7055 22.5558 63.7145C22.7307 63.692 22.9011 63.6695 23.0759 63.6469C23.049 63.6379 23.0221 63.6334 22.9952 63.6244C23.0939 63.683 23.1925 63.7416 23.2912 63.8002C23.3181 63.8904 23.3181 63.8994 23.2956 63.8318C23.2732 63.7596 23.2463 63.692 23.2149 63.6289C23.1746 63.5522 23.1297 63.4756 23.067 63.4125C22.8786 63.2096 22.6186 63.1149 22.345 63.142C22.1074 63.1645 21.8967 63.2817 21.7307 63.4531C21.65 63.5342 21.5828 63.6289 21.5245 63.7281C21.511 63.7551 21.4931 63.7822 21.4796 63.8092C21.3945 63.9355 21.4169 63.9219 21.5514 63.7732C21.8249 63.9309 22.1029 64.0887 22.3809 64.2465C22.2778 63.7236 22.2733 63.1871 22.3719 62.6641C22.4392 62.3034 22.2733 61.9338 21.9011 61.8301C21.5693 61.7444 21.1389 61.9473 21.0716 62.308Z" fill="black" fill-opacity="0.64"/>
<path d="M22.0312 72.0666C22.2195 72.4453 22.4034 72.824 22.5917 73.2027C22.7576 73.5363 23.2105 73.613 23.5109 73.4462C23.753 73.3109 23.9189 73.0945 23.9952 72.824C24.031 72.7023 24.0535 72.549 24.04 72.4228C24.0266 72.2785 24.0893 72.3191 24.0131 72.3867C23.9145 72.4453 23.8158 72.5039 23.7172 72.5625C23.7082 72.567 23.6992 72.567 23.6903 72.5715C23.5782 72.54 23.4661 72.5084 23.3495 72.4814C23.5827 72.6166 23.6947 72.833 24.0355 72.833C24.4391 72.833 24.5288 72.5941 24.7709 72.3552C24.6722 72.4138 24.5736 72.4724 24.475 72.531C24.3449 72.4498 24.2149 72.3687 24.0849 72.283C24.1387 72.6437 24.5915 72.842 24.9144 72.7564C25.3 72.6482 25.439 72.2875 25.3852 71.9224C25.3224 71.5166 24.9413 71.2145 24.5467 71.174C24.0849 71.1289 23.7844 71.3814 23.5647 71.7601C23.6454 71.6789 23.7261 71.5978 23.8068 71.5166C23.7844 71.5346 23.7575 71.5527 23.7351 71.5707C23.8472 71.5391 23.9593 71.5076 24.0759 71.4805C24.0535 71.4805 24.0266 71.4805 24.0041 71.4805C24.1162 71.5121 24.2283 71.5437 24.3449 71.5707C24.2642 71.5256 24.0535 71.2957 23.8741 71.2461C23.6185 71.174 23.3495 71.2281 23.1387 71.3859C22.9504 71.5256 22.8204 71.733 22.7531 71.9539C22.7083 72.0937 22.7576 72.3777 22.6859 72.4769C22.7666 72.3957 22.8473 72.3146 22.928 72.2334C22.9011 72.247 22.8742 72.265 22.8428 72.2785C23.1477 72.3597 23.4571 72.4408 23.762 72.522C23.5737 72.1433 23.3898 71.7646 23.2015 71.3859C22.8069 70.6014 21.6456 71.2867 22.0312 72.0666Z" fill="black" fill-opacity="0.64"/>
<path d="M26.1832 82.1121C26.1608 82.6937 26.7617 83.0228 27.2683 82.865C27.5105 82.7884 27.6853 82.617 27.8019 82.4006C27.8199 82.3646 27.8378 82.324 27.8557 82.2879C27.9544 82.1301 27.8557 82.1752 27.5508 82.4322C27.4118 82.4142 27.4746 82.4142 27.5732 82.4683C27.8916 82.6441 28.3086 82.5449 28.4925 82.2248C28.6718 81.9137 28.5687 81.4764 28.2503 81.3006C27.9185 81.1158 27.5419 81.0076 27.1742 81.1609C26.9859 81.242 26.8289 81.3773 26.7213 81.5576C26.6899 81.6072 26.6585 81.6658 26.6406 81.7244C26.6316 81.7424 26.6227 81.7605 26.6137 81.7785C26.8468 81.517 27.089 81.4945 27.3446 81.7109C27.4029 81.8101 27.4611 81.9092 27.5194 82.0084C27.5239 82.0445 27.5284 82.0806 27.5329 82.1166C27.5463 81.7605 27.2145 81.4223 26.8603 81.4404C26.4792 81.4539 26.1967 81.7334 26.1832 82.1121Z" fill="black" fill-opacity="0.64"/>
<path d="M51.0379 48.61C51.1186 49.0158 51.2576 49.3945 51.4324 49.7687C51.5983 50.1158 52.0512 50.1609 52.3516 50.0121C52.522 49.9264 52.661 49.7732 52.7507 49.6064C52.7776 49.5568 52.7956 49.5027 52.8225 49.4486C52.9659 49.1375 52.818 49.6064 52.4727 49.5703C52.3606 49.5387 52.2485 49.5072 52.1319 49.4801C52.0557 49.4441 52.244 49.5658 52.244 49.5658C52.3158 49.6199 52.3651 49.6514 52.4503 49.6875C52.6252 49.7641 52.8045 49.7777 52.9929 49.7506C53.3964 49.683 53.6341 49.4215 53.7865 49.0563C53.9255 48.7182 53.6341 48.3125 53.3157 48.2223C52.9301 48.1141 52.6297 48.3576 52.4862 48.6957C52.6431 48.4026 52.8404 48.3395 53.0736 48.5063C53.0556 48.4883 53.0377 48.4703 53.0153 48.4567C52.9301 48.3711 52.7687 48.2809 52.6521 48.2494C52.4368 48.1907 52.2037 48.2268 52.0154 48.3395C51.8584 48.4342 51.7463 48.583 51.6701 48.7453C51.6522 48.7858 51.6297 48.8309 51.6118 48.876C51.5625 49.0203 51.5894 48.885 51.6701 48.849C51.975 48.9301 52.2844 49.0113 52.5893 49.0924C52.4637 48.8264 52.3875 48.5469 52.3292 48.2584C52.262 47.8977 51.8315 47.6948 51.4997 47.785C51.1365 47.8797 50.9706 48.2494 51.0379 48.61Z" fill="black" fill-opacity="0.64"/>
<path d="M52.5982 56.3521C52.6834 56.7804 52.773 57.2087 52.8582 57.637C53.0017 58.3448 53.9478 58.214 54.1541 57.637C54.2214 57.4431 54.3379 57.3169 54.4859 57.1816C54.1317 57.1365 53.7819 57.0915 53.4277 57.0464C53.5443 57.3169 53.6653 57.5919 53.7819 57.8624C53.9164 58.1734 54.4366 58.3087 54.7011 58.1058C54.8626 57.9841 54.9926 57.8759 55.0957 57.6956C55.1316 57.6324 55.1719 57.5558 55.1944 57.4837C55.2033 57.4521 55.2168 57.4206 55.2347 57.3935C55.3423 57.1951 55.1361 57.132 54.6115 57.2042C54.5621 57.5648 54.9567 57.8804 55.284 57.8804C55.6876 57.8804 55.9073 57.5693 55.9566 57.2042C56.0329 56.6406 55.5082 56.1312 54.9657 56.1312C54.6922 56.1312 54.4455 56.2529 54.2617 56.4468C54.1765 56.5369 54.1182 56.6361 54.0599 56.7443C54.0241 56.8164 53.8851 57.0419 54.0241 56.9382C54.329 57.0193 54.6384 57.1005 54.9433 57.1816C54.8267 56.9111 54.7056 56.6361 54.589 56.3656C54.4052 55.9418 53.8178 55.9689 53.5308 56.2304C53.208 56.5234 53.0017 56.8751 52.8538 57.2808C53.2842 57.2808 53.7192 57.2808 54.1496 57.2808C54.0644 56.8525 53.9747 56.4242 53.8895 55.9959C53.7236 55.1394 52.4233 55.5 52.5982 56.3521Z" fill="black" fill-opacity="0.64"/>
<path d="M53.7774 66.6944C53.737 67.0325 53.7774 67.3797 53.8671 67.7043C53.9792 68.0965 54.4903 68.3625 54.8535 68.11C55.0912 67.9432 55.2347 67.7629 55.3378 67.4924C55.3647 67.4248 55.3871 67.3526 55.4095 67.2805C55.4499 67.1362 55.4095 67.3301 55.293 67.3481C55.1719 67.3481 55.0553 67.3481 54.9342 67.3481C54.8221 67.303 54.7504 67.2354 54.7325 67.1362C54.719 67.0912 54.7235 67.1047 54.7504 67.1768C54.7639 67.2174 54.7773 67.2625 54.7908 67.303C54.867 67.5104 54.9746 67.6772 55.145 67.817C55.5127 68.1145 55.9297 68.065 56.2884 67.7854C56.5754 67.56 56.5216 67.0641 56.2884 66.8297C56.0059 66.5457 55.6248 66.6043 55.3378 66.8297C55.3243 66.8432 55.3064 66.8522 55.293 66.8657C55.3916 66.8071 55.4902 66.7485 55.5889 66.6899C55.571 66.6944 55.553 66.6989 55.5351 66.7034C55.6562 66.7034 55.7727 66.7034 55.8938 66.7034C55.9745 66.717 56.0911 66.9649 56.0418 66.8162C56.0059 66.6989 55.9611 66.5772 55.8983 66.4735C55.71 66.167 55.3781 65.9911 55.0239 66.0272C54.71 66.0588 54.4545 66.2571 54.2841 66.5186C54.2123 66.6313 54.163 66.7575 54.1226 66.8838C54.1092 66.9244 54.0823 66.983 54.0778 67.0235C54.0733 67.0821 54.0644 67.01 54.1765 66.9334C54.5038 67.0686 54.8356 67.2039 55.1629 67.3391C55.1001 67.1182 55.0912 66.9198 55.1181 66.6899C55.1584 66.3247 54.7773 66.0137 54.4455 66.0137C54.0554 66.0182 53.8222 66.3293 53.7774 66.6944Z" fill="black" fill-opacity="0.64"/>
<path d="M53.4053 74.6564C53.3694 75.0982 53.4053 75.531 53.4725 75.9683C53.5532 76.4777 54.2752 76.6085 54.598 76.2658C54.7146 76.1441 54.8356 76.0224 54.9612 75.9097C55.0733 75.8105 55.1899 75.7113 55.2796 75.6482C54.9522 75.5129 54.6204 75.3777 54.2931 75.2424C54.3334 75.3597 54.3334 75.2244 54.32 75.3506C54.329 75.256 54.2662 75.4363 54.311 75.3597C54.1362 75.6797 54.2348 76.099 54.5532 76.2839C54.8626 76.4642 55.2975 76.365 55.4724 76.0404C55.6652 75.6843 55.728 75.2695 55.5934 74.8818C55.4634 74.5121 54.9791 74.201 54.607 74.476C54.2662 74.7285 53.9478 74.999 53.6564 75.3056C54.033 75.4047 54.4052 75.5039 54.7818 75.6031C54.737 75.3101 54.737 74.9674 54.7594 74.6473C54.7863 74.2957 54.4321 73.9576 54.0868 73.9711C53.6922 73.9981 53.4367 74.2777 53.4053 74.6564Z" fill="black" fill-opacity="0.64"/>
<path d="M52.9748 83.4875C52.7327 83.8978 52.5489 84.3486 52.4457 84.8175C52.365 85.1736 52.5534 85.5478 52.9165 85.6515C53.2932 85.7552 53.616 85.5253 53.7461 85.1781C53.7864 85.0654 53.9209 84.822 53.9927 84.7273C53.6743 84.7273 53.3605 84.7273 53.0421 84.7273C52.9614 84.6281 52.939 84.5199 52.9704 84.3937C52.9121 84.7544 53.0645 85.1195 53.4412 85.2277C53.764 85.3179 54.2079 85.1195 54.2707 84.7544C54.3335 84.3802 54.2662 84.0511 53.9972 83.7716C53.764 83.5281 53.2708 83.4875 53.0466 83.7716C52.7865 84.0962 52.5982 84.4253 52.4502 84.8175C52.8807 84.9392 53.3156 85.0564 53.7461 85.1781C53.8313 84.7995 53.9434 84.5019 54.1407 84.1728C54.3245 83.8572 54.2124 83.4289 53.8985 83.2486C53.5802 83.0592 53.1632 83.172 52.9748 83.4875Z" fill="black" fill-opacity="0.64"/>
<path d="M57.8982 86.1875C57.6202 86.5526 57.4901 87.0035 57.4677 87.4588C57.4543 87.7248 57.6471 87.9818 57.8802 88.0765C58.1448 88.1847 58.4004 88.1215 58.6156 87.9367C58.9474 87.6527 59.2792 87.3641 59.611 87.0801C59.2568 87.035 58.907 86.99 58.5528 86.9449C58.5259 86.9043 58.5394 86.8457 58.5439 86.8006C58.5483 86.769 58.6201 86.6608 58.5483 86.7736C58.3555 87.0846 58.4811 87.5174 58.7905 87.6978C59.1133 87.8871 59.5169 87.7654 59.7097 87.4543C59.9384 87.0891 59.9339 86.6248 59.7142 86.2551C59.4765 85.8584 58.9878 85.8358 58.656 86.1198C58.3241 86.4039 57.9923 86.6924 57.6605 86.9764C58.0416 87.1342 58.4273 87.2965 58.8084 87.4543C58.8174 87.2514 58.7725 87.5445 58.8174 87.3506C58.8353 87.283 58.8532 87.2109 58.8757 87.1432C58.8398 87.2379 58.9295 87.0486 58.9295 87.0441C58.9653 86.9809 59.0057 86.9223 59.0505 86.8682C59.2702 86.5752 59.0954 86.1108 58.8084 85.944C58.4721 85.7411 58.1224 85.8944 57.8982 86.1875Z" fill="black" fill-opacity="0.64"/>
<path d="M60.3823 77.3326C60.2881 77.8465 60.2343 78.365 60.2298 78.8925C60.2208 79.5552 61.158 79.8257 61.4853 79.2351C61.6871 78.8654 61.9247 78.5453 62.2207 78.2478C61.9472 78.2838 61.6781 78.3199 61.4046 78.3515C61.3911 78.3425 61.3732 78.3289 61.3598 78.3199C61.3015 78.2207 61.2432 78.1215 61.1849 78.0224C61.1714 77.9818 61.2163 77.8556 61.1714 77.9998C61.14 78.09 61.1221 78.2343 61.1176 78.3199C61.1087 78.5363 61.1714 78.7482 61.297 78.924C61.4405 79.1179 61.6781 79.2486 61.9247 79.2486C62.0593 79.2486 62.2162 79.208 62.3328 79.1449C62.3552 79.1314 62.3731 79.1224 62.3955 79.1089C62.5032 79.0412 62.4718 79.0367 62.3014 79.0953C62.1893 79.0638 62.0772 79.0322 61.9606 79.0052C61.7812 78.915 61.7678 78.8113 61.7857 78.6806C61.7364 79.0412 61.8754 79.4064 62.2565 79.5146C62.5704 79.6003 63.0323 79.4064 63.0861 79.0412C63.1399 78.6535 63.1219 78.2613 62.826 77.9683C62.678 77.824 62.4538 77.7383 62.2476 77.7428C62.1131 77.7474 61.9561 77.7924 61.8395 77.8556C61.8081 77.8736 61.6602 77.9367 61.7454 77.9187C61.8664 77.9187 61.983 77.9187 62.1041 77.9187C62.0862 77.9142 62.0637 77.9051 62.0458 77.9006C62.1444 77.9592 62.2431 78.0179 62.3417 78.0765C62.3866 78.4507 62.4269 78.5453 62.4673 78.3605C62.4852 78.3154 62.4942 78.2703 62.5032 78.2207C62.5256 78.117 62.5345 78.0088 62.5256 77.9006C62.5076 77.6031 62.3552 77.3191 62.0817 77.1883C61.8126 77.0531 61.4898 77.0711 61.2656 77.292C60.8934 77.6662 60.5751 78.09 60.3195 78.5498C60.7365 78.6625 61.1535 78.7752 61.575 78.8925C61.5795 78.4912 61.6109 78.09 61.6826 77.6933C61.7454 77.3326 61.584 76.9629 61.2118 76.8592C60.88 76.7691 60.445 76.9719 60.3823 77.3326Z" fill="black" fill-opacity="0.64"/>
<path d="M61.288 68.0228C61.0952 68.4872 61.0907 69.0146 61.2387 69.4925C61.445 70.1507 62.3148 70.1192 62.5346 69.4925C62.6467 69.1679 62.8484 68.9109 63.104 68.6855C62.7229 68.5277 62.3373 68.3654 61.9561 68.2076C61.9696 68.4376 61.9875 68.6675 62.001 68.8929C62.0279 69.2896 62.2879 69.5241 62.6736 69.5692C62.8888 69.5962 63.0861 69.5241 63.2654 69.4069C63.3417 69.3573 63.4089 69.2987 63.4672 69.231C63.4896 69.1995 63.5165 69.1724 63.539 69.1454C63.6197 69.0597 63.5524 69.0777 63.3327 69.1995C63.2206 69.1679 63.1085 69.1364 62.9919 69.1093C62.956 69.0687 62.9157 69.0282 62.8798 68.9876C62.8484 68.8749 62.817 68.7622 62.7901 68.645C62.7901 68.663 62.7901 68.681 62.7946 68.6991C62.826 68.5863 62.8574 68.4736 62.8843 68.3564C62.8753 68.3699 62.8664 68.388 62.8574 68.4015C62.4 69.1454 63.5659 69.8261 64.0187 69.0823C64.2878 68.645 64.0636 68.0769 63.5928 67.9056C63.3461 67.8154 63.095 67.8335 62.8664 67.9597C62.7722 68.0093 62.6915 68.0814 62.6153 68.1581C62.5973 68.1761 62.5839 68.1986 62.5659 68.2167C62.4763 68.3068 62.5121 68.3068 62.6736 68.2167C62.8978 68.4421 63.122 68.6675 63.3461 68.8929C63.3327 68.663 63.3148 68.4331 63.3013 68.2076C63.261 67.608 62.6018 67.333 62.1534 67.7298C61.723 68.113 61.427 68.5909 61.2387 69.1318C61.6692 69.1318 62.1041 69.1318 62.5346 69.1318C62.4494 68.8568 62.4763 68.645 62.5839 68.3835C62.7229 68.0453 62.4314 67.6396 62.1131 67.5494C61.7274 67.4412 61.427 67.6847 61.288 68.0228Z" fill="black" fill-opacity="0.64"/>
<path d="M60.7275 56.1704C60.7634 56.5491 60.8037 56.9323 60.8396 57.311C60.871 57.6446 61.0683 57.9331 61.4225 57.9737C61.7454 58.0143 62.0772 57.8204 62.1624 57.4913C62.2341 57.2028 62.3328 56.9413 62.4762 56.6843C62.0906 56.6843 61.7005 56.6843 61.3149 56.6843C61.3822 56.8106 61.4494 56.9368 61.5122 57.0585C61.7588 57.5229 62.4135 57.4688 62.6735 57.0585C62.696 57.0225 62.7273 56.9909 62.7273 56.9774C62.7991 56.9143 62.7498 56.9188 62.5883 56.9909C62.5166 57.0315 62.4449 57.0405 62.3731 57.027C62.2924 56.9458 62.2117 56.8647 62.131 56.7835C62.1265 56.7655 62.122 56.7475 62.1175 56.7294C62.3776 57.5544 63.6779 57.2028 63.4134 56.3688C63.2789 55.945 62.9112 55.679 62.4628 55.6925C62.0278 55.706 61.7229 56.0306 61.5077 56.3733C61.8933 56.3733 62.2834 56.3733 62.6691 56.3733C62.6018 56.247 62.5345 56.1208 62.4718 55.9991C62.2386 55.5573 61.5481 55.5618 61.3104 55.9991C61.1176 56.3552 60.9652 56.7339 60.862 57.1307C61.3014 57.1893 61.7409 57.2524 62.1848 57.311C62.1489 56.9323 62.1086 56.5491 62.0727 56.1704C62.0368 55.8052 61.7902 55.4941 61.4001 55.4941C61.0638 55.4941 60.6916 55.8052 60.7275 56.1704Z" fill="black" fill-opacity="0.64"/>
<path d="M57.3959 48.6118C57.5663 49.0446 57.7771 49.4053 58.073 49.7659C58.4138 50.1807 59.055 49.9102 59.1985 49.4684C59.3016 49.1438 59.3465 48.7921 59.3151 48.454C58.8981 48.5667 58.4811 48.6794 58.0596 48.7966C58.1896 49.0491 58.3735 49.279 58.5932 49.4594C58.8757 49.6893 59.2702 49.7344 59.5438 49.4594C59.7814 49.2204 59.8262 48.7335 59.5438 48.5036C59.463 48.4405 59.3868 48.3683 59.324 48.2917C59.2568 48.206 59.3644 48.3593 59.3061 48.2647C59.2747 48.2151 59.2478 48.1655 59.2209 48.1159C59.0819 47.8454 58.7366 47.7237 58.4586 47.8003C58.1941 47.8724 57.9385 48.161 57.9654 48.454C57.9923 48.738 57.9833 48.8507 57.8982 49.1077C58.2748 49.0085 58.647 48.9093 59.0236 48.8102C58.9653 48.7425 58.907 48.6569 58.8398 48.5397C58.8084 48.4856 58.777 48.427 58.7456 48.3729C58.7366 48.3593 58.6649 48.188 58.6873 48.2556C58.5528 47.9175 58.2389 47.6786 57.8578 47.7823C57.5439 47.8679 57.2614 48.2692 57.3959 48.6118Z" fill="black" fill-opacity="0.64"/>
<path d="M64.1893 48.0886C64.2431 48.3726 64.3507 48.6476 64.4987 48.9001C64.6511 49.1571 64.9695 49.2923 65.2564 49.2112C65.5613 49.1255 65.7228 48.8595 65.7497 48.5575C65.7811 48.2419 65.8124 47.9218 65.8438 47.6062C65.5075 47.8001 65.1712 47.9939 64.8305 48.1923C65.0367 48.3456 65.243 48.5034 65.4492 48.6566C65.7407 48.873 66.2025 48.7062 66.3685 48.4132C66.5702 48.0706 66.4178 47.7054 66.1263 47.489C65.9201 47.3357 65.7138 47.1779 65.5075 47.0246C65.3192 46.8849 65.0188 46.9119 64.8305 47.0246C64.6107 47.1554 64.5211 47.3628 64.4987 47.6107C64.4673 47.9263 64.4359 48.2464 64.4045 48.562C64.8215 48.4493 65.2385 48.3366 65.66 48.2193C65.5524 48.039 65.5255 47.9533 65.4851 47.7324C65.4179 47.3718 64.9874 47.1689 64.6556 47.2591C64.2879 47.3582 64.1265 47.7279 64.1893 48.0886Z" fill="black" fill-opacity="0.64"/>
<path d="M67.1756 56.2038C67.2383 56.578 67.328 56.9386 67.4491 57.2993C67.5881 57.7276 68.0365 57.9079 68.4356 57.705C68.6822 57.5788 68.8391 57.3444 68.9019 57.0784C68.9333 56.9567 68.9378 56.8259 68.9467 56.6952C68.9467 56.6501 68.9512 56.605 68.9557 56.5599C68.9467 56.7493 68.8212 56.871 68.5746 56.9341C68.4625 56.9026 68.3504 56.871 68.2338 56.844C68.7629 57.1054 69.1754 57.2813 69.7807 57.146C70.6237 56.9567 70.2695 55.6492 69.422 55.8431C69.2113 55.8927 69.0902 55.7665 68.9108 55.6763C68.597 55.523 68.2383 55.5456 67.9647 55.762C67.7585 55.9243 67.6643 56.1497 67.6284 56.4066C67.615 56.5058 67.6105 56.6005 67.6015 56.6997C67.5926 56.7853 67.5971 56.7899 67.606 56.7222C67.5612 56.8755 67.6105 56.8124 67.7585 56.5419C68.0858 56.6771 68.4176 56.8124 68.7449 56.9476C68.6284 56.587 68.5387 56.2263 68.4714 55.8521C68.4087 55.4915 67.9692 55.2886 67.6419 55.3788C67.2652 55.4734 67.1128 55.8431 67.1756 56.2038Z" fill="black" fill-opacity="0.64"/>
<path d="M68.7403 65.9857C68.6955 66.3283 68.6461 66.6709 68.6013 67.0135C68.5609 67.3156 68.6282 67.6132 68.9107 67.7755C69.1439 67.9152 69.5474 67.9017 69.7268 67.6718C69.8254 67.541 69.9241 67.4328 70.081 67.3787C69.7985 67.1623 69.5115 66.9459 69.229 66.725C69.238 66.9955 69.2425 67.266 69.2515 67.5365C69.2649 67.9873 69.6685 68.2939 70.1034 68.1902C70.3186 68.1406 70.498 68.0324 70.6684 67.8972L70.8343 67.7664C70.8208 67.7484 70.6056 67.7619 70.5563 67.7078C70.498 67.6086 70.4397 67.5095 70.3814 67.4103C70.3904 67.4328 70.3949 67.4554 70.4038 67.4779C70.6863 68.2939 71.9867 67.9423 71.6997 67.1172C71.5428 66.6709 71.184 66.4185 70.7087 66.432C70.5159 66.4365 70.3142 66.4996 70.1483 66.5988C70.0137 66.6799 69.8882 66.8467 69.7357 66.8828C70.0182 67.0992 70.3052 67.3156 70.5877 67.5365C70.5787 67.266 70.5742 66.9955 70.5653 66.725C70.5563 66.3103 70.1393 65.927 69.7133 66.0713C69.3411 66.2021 69.0093 66.4004 68.7672 66.716C69.1439 66.9369 69.516 67.1533 69.8927 67.3742C69.9375 67.0316 69.9868 66.689 70.0317 66.3463C70.081 65.9857 69.9465 65.6205 69.5609 65.5123C69.256 65.4266 68.7896 65.6205 68.7403 65.9857Z" fill="black" fill-opacity="0.64"/>
<path d="M66.8078 77.1848C66.7136 77.568 66.6194 77.9512 66.5298 78.3344C66.4446 78.686 66.6374 79.0737 67.0006 79.1684C67.3234 79.2541 67.6328 79.191 67.8974 78.9791C68.1081 78.8077 68.1843 78.5418 68.3771 78.375C68.2785 78.4336 68.1798 78.4922 68.0812 78.5508C68.1126 78.5372 68.144 78.5237 68.1798 78.5102C68.0588 78.5102 67.9422 78.5102 67.8211 78.5102C67.8525 78.5147 67.8839 78.5237 67.9198 78.5282C67.7853 78.4245 67.6507 78.3209 67.5162 78.2172C67.5072 78.1631 67.5117 78.1766 67.5252 78.2668C67.5566 78.3434 67.588 78.42 67.6238 78.4967C67.7135 78.6455 67.8525 78.7491 68.005 78.8168C68.1664 78.8889 68.3457 78.8979 68.5206 78.8618C68.5789 78.8573 68.6372 78.8393 68.691 78.8168C68.9556 78.7311 68.9018 78.7041 68.5296 78.7401C68.4489 78.659 68.3682 78.5778 68.2875 78.4967C68.2964 78.5102 68.3099 78.5282 68.3188 78.5418C68.2875 78.4291 68.2561 78.3163 68.2292 78.1991C68.2292 78.2172 68.2292 78.2397 68.2247 78.2577C68.1843 79.1278 69.5295 79.1278 69.5699 78.2577C69.5878 77.8881 69.3367 77.577 68.9914 77.4688C68.83 77.4192 68.6507 77.4147 68.4847 77.4553C68.4265 77.4688 68.1978 77.5139 68.265 77.5229C68.3771 77.5544 68.4892 77.586 68.6058 77.613C68.5834 77.5995 68.5655 77.5815 68.543 77.568C68.6237 77.6491 68.7045 77.7303 68.7852 77.8114C68.7538 77.7483 68.682 77.5094 68.5699 77.3921C68.3906 77.2118 68.0633 77.1307 67.8211 77.1983C67.6238 77.2524 67.4534 77.3696 67.3189 77.5184C67.2472 77.5995 67.1844 77.6897 67.1306 77.7844C67.1127 77.8159 67.0992 77.8475 67.0813 77.8745C66.9557 78.0458 67.0499 78.0413 67.3638 77.8565C67.5207 78.136 67.6776 78.411 67.8346 78.6905C67.9287 78.3073 68.0229 77.9241 68.1126 77.5409C68.3099 76.6979 67.014 76.3372 66.8078 77.1848Z" fill="black" fill-opacity="0.64"/>
<path d="M65.382 85.318C65.4807 85.3947 65.5793 85.4713 65.678 85.5479C65.9649 85.7734 66.4313 85.593 66.5972 85.3045C66.7989 84.9574 66.6465 84.6012 66.355 84.3803C66.2564 84.3036 66.1577 84.227 66.0591 84.1504C65.7721 83.925 65.3058 84.1053 65.1399 84.3938C64.9381 84.741 65.095 85.0926 65.382 85.318Z" fill="black" fill-opacity="0.64"/>
</g>
<g clip-path="url(#clip2_562_3222)">
<path d="M35.2993 45.19C35.8585 40.558 32.6254 37.0996 29.1804 34.4324C27.1738 32.8766 25.2123 31.5785 23.9047 29.3514C23.2373 28.209 22.597 26.9199 22.2228 25.6529C21.4923 23.1858 22.7548 19.3095 25.8797 22.1545C27.6788 23.7948 28.0937 25.9108 29.469 27.7333C30.2446 28.7647 31.435 29.3159 32.675 28.658C36.4041 26.6843 33.5182 19.8385 32.684 17.118C31.674 13.824 31.1419 10.6545 32.8418 7.48499C33.401 6.44479 34.0278 5.37347 34.7447 4.43551C35.2092 3.83095 35.7999 3.17749 36.4627 2.75963C37.8335 1.88835 38.6587 1.88835 40.1737 2.35066C41.788 2.84409 41.8016 2.92855 42.1307 4.45774C42.284 5.16454 42.3472 5.94247 42.3832 6.6715C42.4599 8.21402 42.3336 9.76987 42.0135 11.2857C41.4138 14.1618 39.6868 16.7045 39.308 19.6251C39.0284 21.7722 39.2223 28.5957 42.8116 27.9556C47.0187 27.2044 46.7165 20.5453 50.9101 19.6562C54.4002 18.9139 56.1046 22.6968 54.6256 25.2929C53.823 26.7065 52.4883 27.8 51.2032 28.7647C48.9125 30.485 46.1123 31.3829 43.8622 33.121C39.7905 36.2772 41.1432 41.2382 42.8161 45.3056C43.1408 46.0924 44.4484 45.7457 44.1193 44.95C42.992 42.2072 41.5761 38.851 43.1002 35.9705C44.5116 33.3033 48.2361 32.3698 50.6395 30.7962C53.8861 28.6713 58.5441 24.6705 55.7935 20.4608C53.4938 16.9357 49.0388 18.1137 46.9375 21.0654C46.3017 21.9589 45.8102 22.9413 45.2466 23.8793C44.9895 24.306 44.7325 24.7372 44.4304 25.1373C44.214 25.3951 43.9975 25.6485 43.7811 25.9063C42.0721 26.2797 41.1883 25.8308 41.1297 24.5505C39.4162 20.9587 41.4904 17.278 42.6538 13.9662C43.5195 11.5035 43.8893 8.88081 43.7044 6.28031C43.5782 4.47996 43.3888 2.04394 41.6708 0.968172C40.1602 0.0213223 37.838 0.563649 36.3545 1.30157C34.145 2.40401 32.7922 4.74223 31.674 6.82264C28.8016 12.1659 31.701 16.8735 32.7697 22.2567C32.9095 22.9724 33.2657 24.5416 33.0267 25.3373C32.2962 25.9952 31.5657 26.6487 30.8308 27.3066C30.4114 26.7776 30.0958 26.1997 29.8748 25.564C29.451 24.635 29.0045 23.7681 28.3868 22.9413C27.4128 21.6344 25.5731 19.4873 23.6927 19.594C21.8665 19.7007 20.7934 21.6033 20.5995 23.1902C20.3109 25.5374 21.587 28.0401 22.7413 30.0316C25.9428 35.5482 34.8665 37.5797 33.9466 45.1989C33.8474 46.0391 35.2001 46.0347 35.2993 45.19Z" fill="#46A358"/>
<path d="M46.9871 23.0252C47.9611 18.1576 46.1214 13.7078 45.7381 8.90246C45.5081 6.0308 46.7481 1.4388 50.6891 2.74572C53.6246 3.71924 54.7384 7.16879 54.54 9.92933C54.3957 11.9475 53.4127 17.8686 57.3537 17.3174C60.7356 16.8462 62.4806 11.2896 64.122 8.93358C65.5288 6.91541 68.6356 3.96817 71.3682 4.79056C75.697 6.09303 72.9238 11.214 70.9308 13.2277C67.5715 16.6195 63.9912 19.6201 61.0287 23.3986C59.3107 25.5901 57.8226 29.1908 61.6329 30.1732C63.0984 30.5511 64.5097 30.0488 65.8309 29.4531C66.8951 28.973 67.9096 28.3996 69.0415 28.0839C71.1066 27.5061 73.501 27.9595 72.1347 30.4889C68.9377 36.4144 61.6194 32.0447 56.8983 34.5296C52.8941 36.6412 51.9607 41.3087 52.3395 45.4028C52.4162 46.2519 53.7734 46.2608 53.6923 45.4028C53.4262 42.549 53.6562 39.4639 55.6582 37.2013C58.2465 34.2762 61.7005 35.3431 65.1275 35.2764C68.6266 35.2098 73.1313 33.5383 73.8572 29.6843C74.6509 25.4612 69.7719 26.2791 67.2693 27.2971C66.1646 27.7461 65.132 28.444 63.9777 28.773C63.0623 29.0352 61.6149 29.1775 60.8934 28.3284C60.1945 27.5016 60.7581 26.1102 61.191 25.4079C62.7737 22.8296 65.1996 20.478 67.355 18.3576C70.3266 15.4326 75.3949 12.3298 74.9575 7.55998C74.6238 3.91039 71.2059 2.57235 68.0539 3.9415C66.1601 4.76388 64.5954 6.0708 63.3599 7.70223C61.7456 9.83153 60.8844 12.7565 58.959 14.6325C58.2645 15.3081 57.5837 16.744 56.0325 15.3348C55.3426 14.708 55.55 13.0366 55.6222 12.1786C55.7169 11.054 55.9604 9.956 55.9243 8.82245C55.8657 6.90652 55.2209 4.96392 53.9628 3.47919C51.3024 0.349698 46.7346 0.487502 44.967 4.4127C43.9119 6.75982 44.3763 9.44479 44.8182 11.8808C45.4675 15.4771 46.419 19.0066 45.684 22.6696C45.5171 23.5097 46.8203 23.8698 46.9871 23.0252Z" fill="#46A358"/>
<path d="M46.6848 31.4575C46.049 36.0406 45.0074 40.5304 43.5554 44.9312C43.2849 45.7492 44.5925 46.1004 44.8586 45.2869C46.3105 40.886 47.3522 36.3963 47.988 31.8131C48.1052 30.9685 46.802 30.6085 46.6848 31.4575Z" fill="#46A358"/>
<path d="M30.506 44.4254C30.3302 40.8958 27.8456 38.5132 24.9868 36.6995C23.1335 35.5215 21.1044 34.5391 19.5127 33.0054C18.8273 32.3475 17.5512 31.0717 17.4835 30.0493C17.2536 26.6398 21.4787 29.2936 22.4166 30.0804C23.0749 30.6361 24.0354 29.6937 23.3725 29.138C21.898 27.8978 19.2511 26.2841 17.2265 27.2176C15.5942 27.9689 15.8647 29.8315 16.4915 31.174C19.1294 36.8773 28.8061 37.5308 29.1533 44.4254C29.1938 45.2789 30.5511 45.2834 30.506 44.4254Z" fill="#46A358"/>
<path d="M60.8391 45.7452C62.5255 43.238 64.7485 41.1887 67.4721 39.8107C69.9521 38.5571 73.0273 38.3393 75.2233 36.5656C77.7439 34.5297 77.8747 29.5376 73.7037 29.6665C72.8335 29.6932 72.8335 31.0268 73.7037 31.0001C75.3496 31.2224 76.0169 32.1203 75.7148 33.6895C75.3766 34.5919 74.804 35.3032 73.9968 35.8188C73.0093 36.5078 71.8099 36.8235 70.6736 37.1791C69.2261 37.6325 67.8148 38.1081 66.4755 38.8194C63.6889 40.3041 61.4117 42.4823 59.6667 45.0739C59.1842 45.7896 60.3566 46.4564 60.8391 45.7452Z" fill="#46A358"/>
<path d="M64.5141 34.0138C58.783 35.0806 56.6682 40.7039 55.3109 45.6249C55.081 46.4562 56.3886 46.8073 56.6141 45.9805C57.8496 41.5041 59.6307 36.2764 64.8749 35.3029C65.7271 35.1384 65.3664 33.8537 64.5141 34.0138Z" fill="#46A358"/>
<path d="M34.2938 13.7173C33.6219 11.0546 34.4606 8.13849 36.6341 6.35148C37.0714 5.97363 37.5675 5.68468 38.1131 5.48464C39.6146 5.80026 40.3135 6.59152 40.2098 7.85844C40.2369 8.59636 40.0926 9.32539 39.9167 10.0366C39.5605 11.4725 38.9337 12.8372 38.4693 14.2419C37.2744 17.8604 35.5564 23.7771 38.7849 26.8577C39.0961 27.1555 39.5785 26.6843 39.2629 26.3865C36.4311 23.6882 37.8831 18.5005 38.8526 15.2688C39.6913 12.4682 41.9684 8.7475 40.4308 5.80471C39.2313 3.51093 36.4807 5.37351 35.3129 6.71599C33.5859 8.70304 33.0042 11.3747 33.64 13.8952C33.7482 14.313 34.3975 14.1352 34.2938 13.7173Z" fill="#46A358"/>
<path d="M48.5877 24.5149C48.9755 23.6659 49.7601 22.4656 50.8107 22.3234C52.4114 22.1056 53.2366 24.0882 52.3799 25.3995C51.5727 26.6353 50.0351 27.4977 48.7094 28.0267C46.5044 28.9024 45.0254 30.1116 43.4247 31.8408C43.1316 32.1564 43.6095 32.632 43.9026 32.312C44.8721 31.2584 45.8641 30.1649 47.1267 29.4359C48.1322 28.8535 49.3001 28.6268 50.3102 28.0578C51.5412 27.3599 53.5342 25.8529 53.6785 24.3327C53.7958 23.1058 52.4836 21.6833 51.2571 21.6077C49.7781 21.5143 48.5426 23.008 48.006 24.1815C47.8256 24.5638 48.4118 24.9061 48.5877 24.5149Z" fill="#46A358"/>
<path d="M23.3002 25.2882C23.449 24.1191 23.8954 23.6879 24.635 24.0035C24.8965 24.008 25.1129 24.1013 25.2933 24.2836C25.6495 24.5147 25.884 24.857 26.0959 25.2171C26.4747 25.8616 26.6505 26.6129 26.9301 27.2975C27.2863 28.1777 27.7553 28.8933 28.5624 29.4179C28.9277 29.6579 29.2659 29.08 28.9051 28.84C26.9211 27.542 27.4757 24.1724 24.9957 23.3545C23.5077 22.8655 22.0106 24.1369 22.7186 25.6216C22.9034 26.0128 23.4851 25.6749 23.3002 25.2882Z" fill="#46A358"/>
<path d="M47.5325 8.03655C47.1808 6.11618 49.2325 4.58699 50.8017 5.98726C51.6674 6.76074 52.0011 8.18324 52.0056 9.29457C52.0146 10.8015 51.3157 12.1485 51.6133 13.6599C51.6945 14.0822 52.3483 13.9043 52.2671 13.482C51.8929 11.5839 52.9661 9.76577 52.4836 7.7965C52.195 6.6185 51.6088 5.30713 50.3733 4.8626C48.1458 4.06689 46.5089 6.19175 46.8787 8.20991C46.9598 8.63222 47.6092 8.45441 47.5325 8.03655Z" fill="#46A358"/>
<path d="M47.1945 12.4322C48.2947 14.7126 48.8358 16.713 48.7547 19.2424C48.7411 19.6736 49.4175 19.6691 49.4311 19.2424C49.5167 16.5841 48.9305 14.4815 47.7807 12.0988C47.5913 11.712 47.0096 12.0499 47.1945 12.4322Z" fill="#46A358"/>
<path d="M64.7351 10.5256C65.389 9.05416 66.6245 8.12509 68.0539 7.42718C68.4642 7.21381 68.8881 7.04044 69.33 6.90264C71.2373 7.54276 71.7198 8.42738 70.7774 9.56537C70.3265 10.2633 69.6727 10.8901 69.109 11.5035C66.9627 13.8373 64.6449 15.9977 62.1965 18.0159C61.8628 18.2915 62.3408 18.7627 62.6744 18.4871C64.8884 16.6645 66.9942 14.7264 68.9602 12.646C70.1416 11.3968 72.4097 9.54315 71.9137 7.56943C70.9262 3.65757 64.9786 8.32069 64.1489 10.1922C63.9776 10.5789 64.5638 10.9167 64.7351 10.5256Z" fill="#46A358"/>
<path d="M60.9159 20.4395C58.756 22.0042 57.4439 24.2846 57.1958 26.9118C57.1553 27.3386 57.8316 27.3341 57.8722 26.9118C58.0977 24.538 59.3061 22.4265 61.2586 21.0129C61.6058 20.764 61.2676 20.1816 60.9159 20.4395Z" fill="#46A358"/>
<path d="M65.195 31.5615C65.6369 31.2993 66.0788 31.0236 66.5433 30.7969C66.895 30.6058 67.2648 30.4591 67.6525 30.3568C68.3785 30.059 68.622 30.6147 68.3785 32.0238C67.9006 32.9529 65.3123 32.9885 64.5097 32.9396C62.5031 32.824 60.6137 32.2817 58.6342 32.8818C58.2194 33.0062 58.3952 33.6508 58.8146 33.5264C61.1909 32.8018 63.5041 33.8553 65.903 33.593C67.2061 33.4463 69.0504 32.8551 69.6997 31.6104C70.0604 30.917 69.9748 30.0012 69.1857 29.6234C67.8915 29.0055 65.8714 30.3746 64.8524 30.9836C64.4826 31.2103 64.8208 31.7882 65.195 31.5615Z" fill="#46A358"/>
<path d="M55.1395 34.0405C51.6224 36.8544 50.3417 41.1219 49.9855 45.425C49.9495 45.8517 50.6258 45.8517 50.6619 45.425C51.0046 41.2864 52.2356 37.2145 55.6175 34.5117C55.9557 34.2406 55.4732 33.7738 55.1395 34.0405Z" fill="#46A358"/>
<path d="M40.0023 35.1742C38.9562 36.9612 38.9877 38.9082 39.2177 40.9086C39.4116 42.589 39.6325 44.2382 40.8094 45.5451C41.098 45.8651 41.576 45.3939 41.2874 45.0739C40.1331 43.7936 39.9888 42.0155 39.8354 40.3796C39.6731 38.6771 39.6957 37.0279 40.5885 35.5076C40.8049 35.1386 40.2232 34.8052 40.0023 35.1742Z" fill="#46A358"/>
<path d="M21.3435 30.7832C19.3865 30.8099 20.1621 32.8414 21.2082 33.5704C22.5158 34.4817 24.0039 35.0907 25.3927 35.8598C27.0295 36.7666 27.6879 38.2958 28.9459 39.5716C29.248 39.8783 29.726 39.4071 29.4239 39.1004C28.1748 37.8335 27.5706 36.3176 25.9608 35.4108C25.1492 34.9529 24.297 34.5662 23.4808 34.1261C23.0569 33.8994 22.6331 33.6727 22.2273 33.4193C22.0649 33.3215 21.8981 33.2192 21.7358 33.1215C20.9286 32.8192 20.8024 32.2635 21.348 31.4545C21.7763 31.4456 21.7763 30.7788 21.3435 30.7832Z" fill="#46A358"/>
<path d="M72.2384 33.8549C72.2609 34.7439 71.8461 35.2285 70.9848 35.3129C70.57 35.4774 70.1596 35.6375 69.7448 35.8019C69.127 36.0464 68.5048 36.2909 67.887 36.5354C66.4441 37.1044 64.9966 37.6778 63.5537 38.2468C63.1524 38.4024 63.3282 39.0514 63.7341 38.8914C65.3844 38.238 67.0348 37.5889 68.6851 36.9355C69.9071 36.4509 71.4673 36.1042 72.554 35.3485C73.4964 34.6906 73.5235 33.3259 72.2339 33.1881C71.8055 33.1392 71.81 33.8104 72.2384 33.8549Z" fill="#46A358"/>
<path d="M62.0026 39.1707C60.19 40.86 58.7606 42.8426 57.7505 45.0919C57.5746 45.4786 58.1563 45.8209 58.3367 45.4297C59.3242 43.2337 60.7085 41.2956 62.4851 39.6464C62.7963 39.3486 62.3183 38.8773 62.0026 39.1707Z" fill="#46A358"/>
<path d="M30.5512 42.0866C31.0698 42.8423 31.4034 43.6558 31.5613 44.5537C31.6334 44.976 32.2872 44.7982 32.2151 44.3759C32.0482 43.429 31.683 42.5444 31.1374 41.7487C30.8939 41.3975 30.3077 41.7309 30.5512 42.0866Z" fill="#46A358"/>
</g>
</g>
<defs>
<clipPath id="clip0_562_3222">
<rect width="92" height="92" fill="white" transform="translate(0 0.453125)"/>
</clipPath>
<clipPath id="clip1_562_3222">
<rect width="55" height="48" fill="white" transform="translate(19 43.4531)"/>
</clipPath>
<clipPath id="clip2_562_3222">
<rect width="61" height="46" fill="white" transform="translate(16 0.453125)"/>
</clipPath>
</defs>
</svg>
