<svg width="92" height="93" viewBox="0 0 92 93" fill="none" xmlns="http://www.w3.org/2000/svg">
<g clip-path="url(#clip0_562_3481)">
<circle cx="37" cy="52.4531" r="37" fill="#46A358" fill-opacity="0.13"/>
<g clip-path="url(#clip1_562_3481)">
<path d="M51.3004 44.4804C51.3202 44.9646 51.4592 45.4227 51.7174 45.8349C51.9391 46.1948 52.505 45.8513 52.2833 45.4947C52.088 45.1773 51.9788 44.8403 51.9656 44.4706C51.9457 44.0486 51.2838 44.0617 51.3004 44.4804Z" fill="#46A358"/>
<path d="M59.8092 44.4384C59.7761 44.6216 59.7397 44.8015 59.7066 44.9848C59.6735 45.1582 59.7661 45.3381 59.9449 45.3839C60.1103 45.4264 60.3155 45.3217 60.3486 45.1483C60.3817 44.9651 60.4181 44.7852 60.4512 44.602C60.4843 44.4286 60.3916 44.2486 60.2129 44.2028C60.0475 44.1603 59.8423 44.265 59.8092 44.4384Z" fill="#46A358"/>
<path d="M64.3398 45.09C64.7668 45.0802 64.7535 44.4258 64.3266 44.4357C63.8997 44.4455 63.9129 45.0998 64.3398 45.09Z" fill="#46A358"/>
<path d="M39.4822 46.2482C39.9091 46.2384 39.8959 45.584 39.4689 45.5939C39.042 45.6037 39.0552 46.258 39.4822 46.2482Z" fill="#46A358"/>
<path d="M51.5883 4.84055C49.0334 12.2902 47.6401 20.0931 47.4878 27.9615C47.4117 31.917 47.6467 35.8757 48.1928 39.7952C48.4443 41.6012 48.762 43.4006 49.1459 45.1837C49.4471 46.5774 49.6026 48.1707 50.6484 49.234C51.0952 49.6888 51.7803 48.9788 51.3368 48.5273C50.2083 47.379 50.0924 44.9514 49.8012 43.4497C49.4338 41.5521 49.1426 39.6382 48.9275 37.7144C48.5204 34.0763 48.3847 30.412 48.5138 26.7543C48.7752 19.3734 50.1553 12.0742 52.5514 5.08266C52.7566 4.48394 51.7902 4.24511 51.5883 4.84055Z" fill="#46A358"/>
<path d="M55.4406 4.9746C56.7777 12.4177 56.8108 20.0243 57.0788 27.559C57.2046 31.099 57.4197 34.6488 57.3469 38.192C57.2708 41.8694 56.546 45.3275 55.5697 48.861C55.4009 49.4728 56.364 49.7116 56.5328 49.1031C57.4495 45.7954 58.1776 42.5302 58.3166 39.0884C58.4721 35.2442 58.2107 31.3804 58.075 27.5427C57.8036 19.9164 57.7473 12.2312 56.3938 4.69651C56.2812 4.07489 55.3281 4.35625 55.4406 4.9746Z" fill="#46A358"/>
<path d="M62.6288 17.764C63.0822 27.9488 63.4926 38.2578 60.9774 48.2332C60.8218 48.8483 61.7849 49.0871 61.9405 48.4753C64.4755 38.4149 64.0817 28.0142 63.6217 17.7444C63.5919 17.1129 62.599 17.1293 62.6288 17.764Z" fill="#46A358"/>
<path d="M59.8224 17.9144C58.4158 19.5404 57.4759 21.4315 57.0622 23.5351C56.9398 24.1535 57.9029 24.3989 58.0253 23.7773C58.4059 21.8339 59.2366 20.0999 60.5372 18.5949C60.9509 18.114 60.2394 17.4335 59.8224 17.9144Z" fill="#46A358"/>
<path d="M69.6054 24.171C69.5822 31.5454 68.5828 38.8511 66.6235 45.967C66.4547 46.5788 67.4178 46.8176 67.5866 46.2091C69.5657 39.0114 70.5751 31.6108 70.5983 24.1514C70.5983 23.5199 69.6054 23.5396 69.6054 24.171Z" fill="#46A358"/>
<path d="M67.719 21.9745C65.1509 24.9158 63.8899 28.5375 62.9831 32.264C62.8342 32.879 63.7973 33.1211 63.9462 32.5061C64.8133 28.9563 65.9849 25.4654 68.4372 22.655C68.8509 22.1774 68.136 21.4936 67.719 21.9745Z" fill="#46A358"/>
<path d="M43.7547 10.8712C45.522 14.987 46.8061 19.2532 47.6004 23.6537C47.7129 24.2753 48.6628 23.9906 48.5535 23.3723C47.7593 18.9719 46.4719 14.7056 44.7079 10.5898C44.4597 10.0173 43.5065 10.2888 43.7547 10.8712Z" fill="#46A358"/>
<path d="M41.9146 11.2279C41.395 17.4735 40.8854 23.7977 41.9378 30.0204C43.0399 36.5115 45.7471 42.8454 47.8287 49.078C48.0273 49.6767 48.9804 49.3986 48.7819 48.7966C46.7664 42.7538 44.1618 36.6096 42.9968 30.3411C41.8253 24.03 42.378 17.5553 42.9075 11.2083C42.9604 10.5801 41.9676 10.603 41.9146 11.2279Z" fill="#46A358"/>
<path d="M35.5969 26.3157C38.9097 29.3649 41.5937 32.931 43.6059 36.9388C43.8905 37.5048 44.7345 36.9879 44.4532 36.4252C42.4046 32.3454 39.6577 28.7105 36.2853 25.6057C35.8186 25.1771 35.1303 25.8838 35.5969 26.3157Z" fill="#46A358"/>
<path d="M33.3231 27.576C35.8879 35.1533 39.3398 42.3902 43.6256 49.1626C43.9632 49.6992 44.8137 49.1888 44.4728 48.6489C40.23 41.9453 36.8146 34.7934 34.2762 27.2947C34.0743 26.6992 33.1212 26.9741 33.3231 27.576Z" fill="#46A358"/>
<path d="M39.0685 47.216C37.6057 44.6314 35.4611 42.4819 32.7936 41.1143C32.2509 40.8363 31.7313 40.9082 32.7837 40.8035C33.1676 40.7643 33.5647 40.7479 33.9486 40.7545C35.1996 40.7675 36.3315 40.99 37.4071 41.6607C38.6581 42.4394 39.7502 43.5583 40.8688 44.5104C41.352 44.9226 42.0404 44.2159 41.5572 43.8037C40.1407 42.5931 38.7375 41.0816 37 40.3291C36.0303 39.9071 34.9812 39.7828 33.9288 39.7795C33.2603 39.7762 31.8703 39.6519 31.311 40.2146C30.2188 41.3074 32.3104 41.9519 32.9624 42.3347C35.1996 43.6368 36.9603 45.5082 38.2212 47.7395C38.5323 48.2826 39.3796 47.7689 39.0685 47.216Z" fill="#46A358"/>
<path d="M69.2811 39.2469C70.2508 37.1105 72.5046 36.4398 74.6492 35.9948C74.9636 35.9294 75.0893 35.5171 74.9305 35.2685C73.7655 33.4494 71.6441 33.263 69.6551 33.4429C69.023 33.4985 69.0362 34.48 69.675 34.4244C71.2801 34.2805 73.1169 34.2706 74.0832 35.7822C74.1759 35.5401 74.2719 35.2979 74.3646 35.0558C71.9751 35.5499 69.483 36.4038 68.414 38.7692C68.1526 39.3417 69.0197 39.8227 69.2811 39.2469Z" fill="#46A358"/>
<path d="M35.4313 25.368C34.9944 25.9373 34.5046 26.6473 33.7798 26.8763C33.065 27.102 32.3005 26.7781 32.3567 25.9242C32.3998 25.2568 32.9789 24.7693 33.5415 24.4912C34.1968 24.1673 35.9939 24.0136 35.5173 25.2568C35.2923 25.849 36.2553 26.0813 36.4804 25.4989C36.9404 24.2982 35.835 23.248 34.6635 23.2251C33.4323 23.2022 31.9993 24.0103 31.536 25.1652C31.1024 26.235 31.5558 27.5732 32.7605 27.8774C34.2332 28.2471 35.3485 27.0922 36.1494 26.0518C36.53 25.548 35.8185 24.8642 35.4313 25.368Z" fill="#46A358"/>
<path d="M43.9963 10.1338C43.3775 10.2483 42.4806 10.6475 41.8617 10.3203C41.2428 9.98988 41.3553 9.16869 41.7128 8.6943C42.0867 8.20027 42.6758 8.02033 43.2715 8.18391C43.7547 8.31805 45.2606 9.56784 44.2115 9.9997C43.629 10.2385 43.9037 11.184 44.4961 10.9419C45.7371 10.4316 45.6941 9.01165 44.8965 8.09885C44.0923 7.17624 42.6527 6.82616 41.5771 7.49686C40.6372 8.08576 40.1143 9.36826 40.6239 10.3956C41.3454 11.8547 43.0333 11.3051 44.281 11.0761C44.9065 10.9583 44.6185 10.0161 43.9963 10.1338Z" fill="#46A358"/>
<path d="M55.7915 4.14755C54.931 4.36676 53.9282 4.62522 53.0413 4.41256C51.7936 4.11811 51.7472 2.70474 52.6243 1.97189C53.3259 1.38625 54.4015 1.32082 55.252 1.57601C55.7882 1.73632 56.417 2.08312 56.5626 2.66548C56.7016 3.21185 56.4335 3.75168 55.8775 3.88582C55.2586 4.03632 55.5399 4.97856 56.1621 4.82806C57.6415 4.46818 57.9658 2.64585 57.0557 1.57274C56.0298 0.365489 53.9712 0.159373 52.5912 0.826796C51.2938 1.45496 50.5029 3.14315 51.3666 4.43219C52.3661 5.92735 54.6199 5.45623 56.0728 5.08326C56.6917 4.92949 56.4103 3.98724 55.7915 4.14755Z" fill="#46A358"/>
<path d="M62.8704 13.7965C61.444 13.5445 59.8819 13.9535 59.23 15.3505C58.7004 16.4825 59.2002 17.9515 60.4313 18.3768C61.6724 18.8054 63.5555 18.2754 64.2439 17.1369C64.9025 16.0408 64.4259 14.6504 63.3867 13.996C62.8473 13.6558 62.3674 14.5162 62.9035 14.8532C63.572 15.272 63.7905 16.2241 63.2444 16.8359C62.7579 17.3822 61.7187 17.6145 61.0138 17.4902C60.107 17.3299 59.7562 16.3909 60.2096 15.6155C60.706 14.7682 61.7286 14.5915 62.6288 14.7485C63.2543 14.8598 63.4992 13.9077 62.8704 13.7965Z" fill="#46A358"/>
<path d="M70.5651 19.2196C69.3108 19.1378 67.5733 19.3144 67.2953 20.8325C67.0669 22.0757 68.4966 23.7181 69.5921 24.1598C72.7196 25.4194 73.3881 19.1378 70.6908 19.3046C70.0554 19.3439 70.072 20.3254 70.7107 20.2861C71.5877 20.2305 71.3726 22.2819 71.174 22.6876C70.7074 23.6527 69.8138 23.2994 69.2247 22.6843C68.7713 22.2099 67.9572 21.3691 68.4271 20.6886C68.8805 20.0342 69.8932 20.1585 70.5849 20.2011C71.2237 20.2436 71.1972 19.2621 70.5651 19.2196Z" fill="#46A358"/>
<path d="M52.6374 6.63077C52.5381 6.96121 52.4355 7.29165 52.3362 7.62209C52.2138 8.02778 52.8558 8.18482 52.9783 7.78241C53.0776 7.45197 53.1802 7.12153 53.2795 6.79109C53.4019 6.3854 52.7599 6.22836 52.6374 6.63077Z" fill="#46A358"/>
<path d="M54.0506 6.68644C54.0539 6.90564 54.0605 7.12157 54.0638 7.34077C54.0738 7.76282 54.7357 7.74973 54.7257 7.32769C54.7224 7.10848 54.7158 6.89255 54.7125 6.67335C54.7059 6.2513 54.044 6.26439 54.0506 6.68644Z" fill="#46A358"/>
<path d="M53.5808 10.6212C54.0077 10.6114 53.9945 9.95709 53.5675 9.96691C53.1439 9.97345 53.1571 10.6278 53.5808 10.6212Z" fill="#46A358"/>
<path d="M51.605 10.9881C51.5752 11.3512 51.5455 11.7176 51.519 12.0808C51.5057 12.2575 51.6911 12.4047 51.8566 12.4014C52.0518 12.3982 52.1676 12.2444 52.1809 12.0677C52.2107 11.7046 52.2405 11.3381 52.2669 10.975C52.2802 10.7983 52.0948 10.6511 51.9294 10.6544C51.7341 10.6576 51.6183 10.8114 51.605 10.9881Z" fill="#46A358"/>
<path d="M53.1703 12.0478C53.1802 12.4469 53.1868 12.8461 53.1968 13.2485C53.2067 13.6705 53.8686 13.6574 53.8587 13.2354C53.8487 12.8362 53.8421 12.4371 53.8322 12.0347C53.8223 11.6126 53.1603 11.6257 53.1703 12.0478Z" fill="#46A358"/>
<path d="M54.3419 9.7322C54.3849 10.0594 54.4279 10.3865 54.471 10.7104C54.4941 10.8871 54.6166 11.0343 54.8085 11.0311C54.9707 11.0278 55.156 10.874 55.1329 10.6973C55.0898 10.3702 55.0468 10.043 55.0038 9.71912C54.9806 9.54244 54.8582 9.39522 54.6662 9.39849C54.5008 9.40176 54.3154 9.55553 54.3419 9.7322Z" fill="#46A358"/>
<path d="M54.4379 14.6396C54.4412 14.8228 54.4445 15.0027 54.4478 15.1859C54.4577 15.608 55.1196 15.5949 55.1097 15.1728C55.1064 14.9896 55.1031 14.8097 55.0998 14.6265C55.0898 14.2044 54.4279 14.2175 54.4379 14.6396Z" fill="#46A358"/>
<path d="M53.0048 9.32337C52.9717 9.64726 53.0445 9.95153 53.1802 10.246C53.253 10.4063 53.4979 10.439 53.6369 10.3539C53.8057 10.2525 53.8189 10.066 53.7461 9.90245C53.66 9.71597 53.6468 9.50985 53.6667 9.30701C53.6832 9.13034 53.4913 8.98311 53.3291 8.98638C53.1338 8.99292 53.0213 9.14669 53.0048 9.32337Z" fill="#46A358"/>
<path d="M50.6948 14.5192C50.6286 14.8856 50.5624 15.2488 50.4962 15.6152C50.4201 16.0274 51.0622 16.191 51.1383 15.7755C51.2045 15.4091 51.2707 15.0459 51.3369 14.6795C51.4097 14.2673 50.7709 14.1037 50.6948 14.5192Z" fill="#46A358"/>
<path d="M52.5183 16.7765C52.4885 17.0317 52.4554 17.2869 52.4256 17.542C52.4058 17.7187 52.4753 17.8921 52.6639 17.9412C52.8195 17.9804 53.0445 17.8823 53.0677 17.7056C53.0975 17.4504 53.1306 17.1952 53.1603 16.9401C53.1802 16.7634 53.1107 16.59 52.9221 16.5409C52.7665 16.4984 52.5415 16.5998 52.5183 16.7765Z" fill="#46A358"/>
<path d="M51.9359 21.4323C51.9888 21.7103 51.9557 21.9819 51.8664 22.2469C51.7307 22.646 52.3727 22.8064 52.5084 22.4072C52.6375 22.0277 52.6474 21.6384 52.5713 21.2458C52.5382 21.0724 52.3198 20.9775 52.1609 21.0266C51.9723 21.0822 51.8995 21.2589 51.9359 21.4323Z" fill="#46A358"/>
<path d="M49.9138 18.791C49.884 19.0462 49.8509 19.3014 49.8211 19.5566C49.8013 19.7333 49.8708 19.9067 50.0594 19.9557C50.215 19.995 50.44 19.8969 50.4632 19.7202C50.493 19.465 50.5261 19.2098 50.5559 18.9546C50.5757 18.7779 50.5062 18.6045 50.3176 18.5555C50.1587 18.5162 49.9337 18.6144 49.9138 18.791Z" fill="#46A358"/>
<path d="M54.4214 19.3123C54.5008 19.6754 54.5769 20.0386 54.6563 20.3985C54.7457 20.8107 55.3811 20.6209 55.2918 20.212C55.2123 19.8488 55.1362 19.4857 55.0568 19.1258C54.9674 18.7135 54.3353 18.9 54.4214 19.3123Z" fill="#46A358"/>
<path d="M54.8548 24.122C54.8614 24.4851 54.8713 24.8483 54.878 25.2115C54.8879 25.6335 55.5498 25.6204 55.5399 25.1984C55.5332 24.8352 55.5233 24.4721 55.5167 24.1089C55.5101 23.6869 54.8482 23.6999 54.8548 24.122Z" fill="#46A358"/>
<path d="M54.0737 28.9174C54.1167 29.1726 54.1564 29.4245 54.1995 29.6797C54.2292 29.8531 54.4543 29.9447 54.6098 29.8989C54.7985 29.8433 54.8614 29.6666 54.8316 29.4932C54.7886 29.238 54.7488 28.9861 54.7058 28.7309C54.676 28.5575 54.451 28.4659 54.2954 28.5117C54.1068 28.5641 54.0439 28.7407 54.0737 28.9174Z" fill="#46A358"/>
<path d="M51.3733 26.4833C51.3766 26.7025 51.3833 26.9184 51.3866 27.1377C51.3965 27.5597 52.0584 27.5466 52.0485 27.1246C52.0452 26.9054 52.0386 26.6894 52.0352 26.4702C52.0286 26.0482 51.3667 26.0613 51.3733 26.4833Z" fill="#46A358"/>
<path d="M49.5496 23.6827C49.5728 23.9543 49.5463 24.2095 49.4669 24.4712C49.3444 24.8769 49.9865 25.0339 50.1089 24.6315C50.2049 24.3207 50.238 23.9935 50.2115 23.6697C50.1751 23.2541 49.5132 23.264 49.5496 23.6827Z" fill="#46A358"/>
<path d="M50.3804 31.2149C50.3473 31.47 50.3175 31.7252 50.2844 31.9804C50.2613 32.1571 50.3341 32.3305 50.5227 32.3796C50.6783 32.4188 50.9033 32.3207 50.9265 32.144C50.9596 31.8888 50.9894 31.6336 51.0225 31.3784C51.0456 31.2018 50.9728 31.0284 50.7842 30.9793C50.6253 30.94 50.4036 31.0382 50.3804 31.2149Z" fill="#46A358"/>
<path d="M53.756 34.9205C53.799 35.1365 53.8387 35.3557 53.8818 35.5716C53.9149 35.745 54.1333 35.8399 54.2921 35.7908C54.4775 35.7352 54.547 35.5585 54.5139 35.3851C54.4709 35.1692 54.4311 34.95 54.3881 34.734C54.355 34.5606 54.1366 34.4658 53.9777 34.5148C53.7924 34.5705 53.7229 34.7471 53.756 34.9205Z" fill="#46A358"/>
<path d="M51.9657 38.6677C52.0452 39.0309 52.1279 39.3908 52.2073 39.7539C52.3 40.1662 52.9321 39.9764 52.8428 39.5674C52.7633 39.2043 52.6806 38.8444 52.6012 38.4812C52.5085 38.069 51.8731 38.2555 51.9657 38.6677Z" fill="#46A358"/>
<path d="M55.6591 41.0349C55.5896 41.2901 55.5234 41.5453 55.4539 41.8038C55.3446 42.2127 55.9867 42.3731 56.0959 41.9641C56.1654 41.7089 56.2316 41.4537 56.3011 41.1952C56.4103 40.7863 55.7683 40.626 55.6591 41.0349Z" fill="#46A358"/>
<path d="M55.166 12.6401C55.2091 12.8953 55.2521 13.1472 55.2951 13.4024C55.3249 13.5758 55.5499 13.6674 55.7055 13.6216C55.8941 13.566 55.957 13.3893 55.9272 13.2159C55.8842 12.9607 55.8412 12.7088 55.7981 12.4536C55.7684 12.2802 55.5433 12.1886 55.3878 12.2344C55.2024 12.29 55.1362 12.4667 55.166 12.6401Z" fill="#46A358"/>
<path d="M55.2454 17.1326C55.2918 17.4598 55.3381 17.7837 55.3844 18.1108C55.4109 18.2842 55.5267 18.4347 55.722 18.4315C55.8842 18.4282 56.0695 18.2744 56.0463 18.0977C56 17.7706 55.9537 17.4467 55.9073 17.1195C55.8809 16.9461 55.765 16.7956 55.5698 16.7989C55.4076 16.8022 55.2189 16.9592 55.2454 17.1326Z" fill="#46A358"/>
<path d="M60.2097 20.7653C60.1204 21.2789 60.0277 21.7893 59.9384 22.303C59.8656 22.7152 60.5076 22.8788 60.5804 22.4633C60.6698 21.9496 60.7624 21.4392 60.8518 20.9256C60.9246 20.5134 60.2826 20.3498 60.2097 20.7653Z" fill="#46A358"/>
<path d="M61.4971 19.8427C61.5037 20.0979 61.507 20.3531 61.5137 20.605C61.5236 21.027 62.1855 21.0139 62.1756 20.5919C62.1689 20.3367 62.1656 20.0815 62.159 19.8296C62.1491 19.4076 61.4905 19.4206 61.4971 19.8427Z" fill="#46A358"/>
<path d="M61.1364 23.3385C61.0735 23.8849 61.0139 24.4313 60.9511 24.9776C60.9047 25.3964 61.5666 25.3768 61.613 24.9646C61.6758 24.4182 61.7354 23.8718 61.7983 23.3254C61.8446 22.9099 61.1827 22.9263 61.1364 23.3385Z" fill="#46A358"/>
<path d="M59.422 24.2975C59.2796 24.592 59.1406 24.8864 58.9983 25.1776C58.8163 25.5571 59.3955 25.8777 59.5775 25.495C59.7198 25.2005 59.8588 24.906 60.0011 24.6149C60.1832 24.2353 59.604 23.9147 59.422 24.2975Z" fill="#46A358"/>
<path d="M58.4258 22.5476C58.3398 22.7701 58.257 22.9893 58.171 23.2117C58.1081 23.3786 58.2504 23.5683 58.4093 23.6109C58.5979 23.66 58.7468 23.5389 58.813 23.3753C58.8991 23.1528 58.9818 22.9336 59.0679 22.7112C59.1307 22.5443 58.9884 22.3545 58.8296 22.312C58.6409 22.2629 58.492 22.3807 58.4258 22.5476Z" fill="#46A358"/>
<path d="M60.3155 26.8473C60.3023 27.1385 60.2924 27.4297 60.2791 27.7209C60.2626 28.1429 60.9245 28.1266 60.941 27.7078C60.9543 27.4166 60.9642 27.1254 60.9774 26.8343C60.994 26.4122 60.3321 26.4286 60.3155 26.8473Z" fill="#46A358"/>
<path d="M61.6724 28.5642C61.6592 28.8358 61.646 29.1106 61.6327 29.3822C61.6228 29.5588 61.8015 29.7061 61.9703 29.7028C62.1589 29.6995 62.2847 29.5457 62.2946 29.3691C62.3079 29.0975 62.3211 28.8227 62.3343 28.5511C62.3443 28.3745 62.1656 28.2273 61.9968 28.2305C61.8081 28.2338 61.6824 28.3876 61.6724 28.5642Z" fill="#46A358"/>
<path d="M61.1497 31.4894C61.1199 31.7249 61.0868 31.9638 61.057 32.1993C61.0339 32.3727 61.11 32.5494 61.2953 32.5985C61.4542 32.6377 61.6759 32.5396 61.6991 32.3629C61.7288 32.1273 61.7619 31.8885 61.7917 31.6529C61.8149 31.4795 61.7388 31.3029 61.5534 31.2538C61.3946 31.2113 61.1728 31.3127 61.1497 31.4894Z" fill="#46A358"/>
<path d="M58.6808 29.4679C58.6477 29.6674 58.6146 29.8703 58.5815 30.0699C58.5517 30.2433 58.6377 30.4199 58.8198 30.469C58.9819 30.5083 59.1937 30.4068 59.2235 30.2334C59.2566 30.0339 59.2897 29.831 59.3228 29.6315C59.3526 29.4581 59.2665 29.2814 59.0845 29.2323C58.9224 29.1898 58.7105 29.2912 58.6808 29.4679Z" fill="#46A358"/>
<path d="M59.1573 34.6689C59.1606 34.8128 59.164 34.96 59.1673 35.104C59.1772 35.526 59.8391 35.5129 59.8292 35.0909C59.8259 34.9469 59.8225 34.7997 59.8192 34.6558C59.8093 34.2337 59.1474 34.2468 59.1573 34.6689Z" fill="#46A358"/>
<path d="M61.2953 36.5888C61.2986 36.7327 61.3019 36.88 61.3052 37.0239C61.3151 37.446 61.977 37.4329 61.9671 37.0108C61.9638 36.8669 61.9605 36.7196 61.9572 36.5757C61.9473 36.1536 61.2853 36.1667 61.2953 36.5888Z" fill="#46A358"/>
<path d="M59.3889 40.5551C59.4154 40.8103 59.3889 41.0459 59.3061 41.288C59.2499 41.4548 59.3823 41.6446 59.5444 41.6871C59.7298 41.7329 59.8886 41.6184 59.9482 41.4515C60.0475 41.1604 60.0839 40.8496 60.0508 40.5453C60.0309 40.3686 59.9019 40.2214 59.7132 40.2247C59.5444 40.2247 59.369 40.3784 59.3889 40.5551Z" fill="#46A358"/>
<path d="M60.2063 19.1058C60.1203 19.2726 60.0309 19.4395 59.9449 19.6031C59.7496 19.976 60.3254 20.2966 60.524 19.9204C60.6101 19.7536 60.6994 19.5867 60.7855 19.4231C60.9807 19.0501 60.4049 18.7295 60.2063 19.1058Z" fill="#46A358"/>
<path d="M43.0399 12.8862C43.0995 13.2297 43.1624 13.5765 43.2219 13.92C43.2517 14.0934 43.4768 14.185 43.6323 14.1392C43.821 14.0836 43.8871 13.9069 43.854 13.7335C43.7945 13.39 43.7316 13.0432 43.672 12.6997C43.6422 12.5263 43.4172 12.4347 43.2616 12.4805C43.073 12.5361 43.0068 12.7128 43.0399 12.8862Z" fill="#46A358"/>
<path d="M44.0262 15.0491C44.1785 15.409 44.334 15.7721 44.4863 16.132C44.5558 16.2956 44.7146 16.4068 44.8966 16.3512C45.0522 16.3054 45.1879 16.1091 45.1184 15.9455C44.9661 15.5856 44.8106 15.2225 44.6584 14.8626C44.5889 14.699 44.43 14.5878 44.248 14.6434C44.0924 14.6892 43.9567 14.8855 44.0262 15.0491Z" fill="#46A358"/>
<path d="M43.1226 16.2555C43.0465 16.7593 43.0531 17.2403 43.1424 17.7376C43.2153 18.1498 43.8474 17.9633 43.7779 17.5511C43.7117 17.1781 43.7117 16.7921 43.7679 16.4158C43.8242 16.0036 43.1822 15.84 43.1226 16.2555Z" fill="#46A358"/>
<path d="M44.3803 18.1472C44.4928 18.4547 44.602 18.7655 44.7145 19.0731C44.8568 19.469 45.4922 19.2857 45.3499 18.8866C45.2374 18.5791 45.1282 18.2683 45.0157 17.9607C44.8734 17.5648 44.2379 17.7481 44.3803 18.1472Z" fill="#46A358"/>
<path d="M42.8414 19.456C42.848 19.8191 42.8579 20.1823 42.8645 20.5454C42.8745 20.9675 43.5364 20.9544 43.5264 20.5324C43.5198 20.1692 43.5099 19.806 43.5033 19.4429C43.4966 19.0208 42.8347 19.0339 42.8414 19.456Z" fill="#46A358"/>
<path d="M44.0824 20.6864C44.089 21.0136 44.0956 21.3408 44.1022 21.6679C44.1122 22.09 44.7741 22.0769 44.7641 21.6549C44.7575 21.3277 44.7509 21.0005 44.7443 20.6733C44.7344 20.2513 44.0725 20.2644 44.0824 20.6864Z" fill="#46A358"/>
<path d="M45.9323 21.3327C46.0647 21.7123 46.2004 22.0918 46.3328 22.4713C46.4718 22.8672 47.1072 22.684 46.9682 22.2848C46.8358 21.9053 46.7002 21.5258 46.5678 21.1463C46.4288 20.7504 45.7933 20.9336 45.9323 21.3327Z" fill="#46A358"/>
<path d="M46.6573 24.5924C46.697 24.792 46.74 24.9916 46.7798 25.1911C46.8162 25.3645 47.0313 25.4594 47.1901 25.4103C47.3755 25.3547 47.4483 25.178 47.4119 25.0046C47.3722 24.8051 47.3291 24.6055 47.2894 24.4059C47.253 24.2325 47.0379 24.1376 46.879 24.1867C46.697 24.2391 46.6209 24.419 46.6573 24.5924Z" fill="#46A358"/>
<path d="M44.8402 24.6277C44.9494 24.9352 45.0289 25.2493 45.0653 25.5732C45.0851 25.7498 45.2142 25.8971 45.4028 25.8938C45.5683 25.8905 45.747 25.7368 45.7272 25.5601C45.6841 25.1773 45.6047 24.8043 45.4756 24.4412C45.3333 24.0453 44.6979 24.2285 44.8402 24.6277Z" fill="#46A358"/>
<path d="M43.1424 23.3232C43.149 23.5783 43.1523 23.8335 43.1589 24.0855C43.1689 24.5075 43.8308 24.4944 43.8208 24.0724C43.8142 23.8172 43.8109 23.562 43.8043 23.3101C43.7944 22.888 43.1358 22.9011 43.1424 23.3232Z" fill="#46A358"/>
<path d="M43.9402 27.2328C43.9667 27.56 44.0295 27.8806 44.1388 28.1881C44.2811 28.584 44.9165 28.4008 44.7742 28.0016C44.6815 27.7465 44.6219 27.488 44.6021 27.2197C44.5723 26.8009 43.9104 26.814 43.9402 27.2328Z" fill="#46A358"/>
<path d="M45.3896 30.0171C45.4491 30.2167 45.5087 30.4163 45.5683 30.6126C45.6874 31.015 46.3228 30.8318 46.2037 30.4261C46.1441 30.2265 46.0846 30.0302 46.025 29.8306C45.9058 29.4282 45.2704 29.6114 45.3896 30.0171Z" fill="#46A358"/>
<path d="M46.1673 27.4912C46.2071 27.6351 46.2468 27.7791 46.2865 27.9263C46.399 28.332 47.0344 28.1455 46.9219 27.7398C46.8822 27.5959 46.8425 27.4519 46.8028 27.3047C46.6903 26.899 46.0548 27.0855 46.1673 27.4912Z" fill="#46A358"/>
<path d="M44.291 32.931C44.3737 33.2549 44.4531 33.5821 44.5359 33.906C44.6385 34.3149 45.2739 34.1285 45.1713 33.7195C45.0885 33.3956 45.0091 33.0684 44.9264 32.7445C44.8238 32.3356 44.1884 32.5221 44.291 32.931Z" fill="#46A358"/>
<path d="M45.9357 37.6956C45.9953 37.8395 46.0515 37.9835 46.1111 38.1274C46.1773 38.291 46.3395 38.4023 46.5215 38.3466C46.6803 38.3008 46.8094 38.1045 46.7432 37.9409C46.6837 37.797 46.6274 37.653 46.5678 37.5091C46.5016 37.3455 46.3395 37.2343 46.1574 37.2899C45.9986 37.3357 45.8695 37.532 45.9357 37.6956Z" fill="#46A358"/>
<path d="M67.4806 24.1377C67.3052 24.4878 67.1265 24.8345 66.9511 25.1846C66.7591 25.5609 67.3383 25.8815 67.5302 25.502C67.7056 25.1519 67.8843 24.8051 68.0598 24.455C68.2517 24.0788 67.6725 23.7614 67.4806 24.1377Z" fill="#46A358"/>
<path d="M68.4073 24.9584C68.3246 25.2888 68.2385 25.616 68.1558 25.9464C68.0499 26.3554 68.6919 26.5157 68.7978 26.1067C68.8806 25.7763 68.9666 25.4491 69.0494 25.1187C69.152 24.713 68.5099 24.5527 68.4073 24.9584Z" fill="#46A358"/>
<path d="M67.5931 28.0868C67.5104 28.3617 67.4277 28.6365 67.3416 28.9113C67.2192 29.317 67.8612 29.474 67.9837 29.0716C68.0664 28.7968 68.1491 28.522 68.2352 28.2472C68.3543 27.8447 67.7123 27.6844 67.5931 28.0868Z" fill="#46A358"/>
<path d="M67.0371 26.7617C66.9676 26.8893 66.8948 27.0201 66.8253 27.1477C66.6201 27.5174 67.1993 27.8381 67.4045 27.4651C67.474 27.3375 67.5468 27.2066 67.6163 27.079C67.8215 26.7126 67.2423 26.392 67.0371 26.7617Z" fill="#46A358"/>
<path d="M68.672 26.918C68.6422 27.1732 68.6124 27.4284 68.5826 27.6836C68.5628 27.8602 68.6323 28.0336 68.8209 28.0827C68.9764 28.122 69.2015 28.0238 69.2247 27.8471C69.2545 27.592 69.2842 27.3368 69.314 27.0816C69.3339 26.9049 69.2644 26.7315 69.0757 26.6824C68.9169 26.6432 68.6918 26.7413 68.672 26.918Z" fill="#46A358"/>
<path d="M65.5546 28.6171C65.4884 28.8265 65.3891 29.0162 65.27 29.1994C65.0383 29.5528 65.6175 29.8701 65.8492 29.5168C66.0014 29.2878 66.1139 29.0391 66.1966 28.7774C66.2496 28.6105 66.1238 28.4208 65.9584 28.3782C65.773 28.3357 65.6076 28.4469 65.5546 28.6171Z" fill="#46A358"/>
<path d="M65.5346 31.4297C65.3923 31.662 65.3228 31.927 65.3361 32.1986C65.3559 32.6174 66.0178 32.6075 65.998 32.1855C65.9914 32.0219 66.0244 31.8878 66.1138 31.7504C66.3355 31.3872 65.7564 31.0699 65.5346 31.4297Z" fill="#46A358"/>
<path d="M67.259 30.7109C67.1928 30.9301 67.1266 31.1525 67.0637 31.3717C66.9446 31.7774 67.5866 31.9345 67.7058 31.532C67.772 31.3128 67.8382 31.0904 67.901 30.8712C68.0202 30.4655 67.3781 30.3084 67.259 30.7109Z" fill="#46A358"/>
<path d="M66.7128 33.9365C66.6433 34.1753 66.5771 34.4109 66.5076 34.6497C66.3917 35.0554 67.0338 35.2157 67.1496 34.81C67.2191 34.5712 67.2853 34.3356 67.3548 34.0968C67.4706 33.6944 66.8286 33.534 66.7128 33.9365Z" fill="#46A358"/>
<path d="M68.8112 29.2908C68.7946 29.438 68.7814 29.582 68.7648 29.7292C68.745 29.9059 68.9402 30.0531 69.1024 30.0498C69.301 30.0465 69.4069 29.8928 69.4267 29.7161C69.4433 29.5689 69.4565 29.4249 69.4731 29.2777C69.4929 29.101 69.2977 28.9538 69.1355 28.9571C68.9369 28.9636 68.831 29.1141 68.8112 29.2908Z" fill="#46A358"/>
<path d="M64.6542 35.8335C64.6211 35.9447 64.5847 36.0527 64.5516 36.1639C64.4259 36.5664 65.0679 36.7267 65.1937 36.3242C65.2268 36.213 65.2632 36.105 65.2963 35.9938C65.422 35.5914 64.78 35.4343 64.6542 35.8335Z" fill="#46A358"/>
<path d="M64.1216 39.1745C64.0521 39.3577 63.9792 39.541 63.9097 39.7242C63.8469 39.8878 63.9892 40.0808 64.148 40.1233C64.34 40.1724 64.4856 40.0513 64.5518 39.8878C64.6213 39.7045 64.6941 39.5213 64.7636 39.3381C64.8265 39.1745 64.6842 38.9815 64.5253 38.939C64.3334 38.8899 64.1877 39.0077 64.1216 39.1745Z" fill="#46A358"/>
<path d="M66.7262 37.8427C66.7295 37.9506 66.7295 38.0619 66.7328 38.1698C66.7427 38.5919 67.4046 38.5788 67.3947 38.1568C67.3914 38.0488 67.3914 37.9376 67.3881 37.8296C67.3782 37.4076 66.7163 37.4206 66.7262 37.8427Z" fill="#46A358"/>
<path d="M65.4916 42.1775C65.475 42.3247 65.4618 42.4687 65.4452 42.6159C65.4254 42.7926 65.6207 42.9398 65.7828 42.9366C65.9814 42.9333 66.0873 42.7795 66.1072 42.6028C66.1237 42.4556 66.1369 42.3117 66.1535 42.1644C66.1733 41.9878 65.9781 41.8405 65.8159 41.8438C65.6207 41.8471 65.5114 42.0008 65.4916 42.1775Z" fill="#46A358"/>
<path d="M35.2591 28.5338C35.3154 28.7137 35.375 28.8969 35.4312 29.0769C35.557 29.4793 36.1924 29.2928 36.0667 28.8904C36.0104 28.7104 35.9508 28.5272 35.8946 28.3473C35.7655 27.9449 35.1301 28.1314 35.2591 28.5338Z" fill="#46A358"/>
<path d="M35.941 27.7929C36.1628 28.0645 36.3878 28.336 36.6095 28.6043C36.7221 28.7417 36.9637 28.7123 37.0762 28.5945C37.2119 28.4538 37.1788 28.2706 37.0663 28.1332C36.8445 27.8616 36.6195 27.5901 36.3977 27.3218C36.2852 27.1844 36.0436 27.2139 35.9311 27.3316C35.7954 27.469 35.8285 27.6555 35.941 27.7929Z" fill="#46A358"/>
<path d="M37.2117 30.0952C37.4037 30.3634 37.5956 30.6317 37.7843 30.8967C38.0292 31.2402 38.5951 30.9 38.3502 30.5565C38.1583 30.2882 37.9663 30.0199 37.7777 29.7549C37.5294 29.4114 36.9635 29.7484 37.2117 30.0952Z" fill="#46A358"/>
<path d="M36.3976 30.8764C36.5498 31.1283 36.7021 31.3803 36.8543 31.6322C37.0728 31.9921 37.6387 31.6518 37.4203 31.2919C37.268 31.04 37.1158 30.7881 36.9635 30.5362C36.7418 30.173 36.1792 30.5133 36.3976 30.8764Z" fill="#46A358"/>
<path d="M37.8803 33.5758C38.0722 33.916 38.2675 34.2563 38.4594 34.5965C38.6679 34.9629 39.2339 34.6227 39.0254 34.2563C38.8334 33.916 38.6382 33.5758 38.4462 33.2355C38.2344 32.8691 37.6718 33.2093 37.8803 33.5758Z" fill="#46A358"/>
<path d="M38.4661 32.5856C38.5984 32.7819 38.7308 32.9815 38.8632 33.1778C39.0982 33.5278 39.6641 33.1876 39.4291 32.8375C39.2967 32.6412 39.1644 32.4416 39.032 32.2453C38.7937 31.8953 38.2278 32.2322 38.4661 32.5856Z" fill="#46A358"/>
<path d="M38.7739 31.2106C38.8832 31.4429 39.0685 31.6229 39.2902 31.7537C39.6609 31.9664 39.9819 31.3939 39.6112 31.1812C39.4789 31.1059 39.3994 31.0045 39.3366 30.8704C39.2604 30.7101 39.0222 30.6774 38.8798 30.7624C38.7177 30.8638 38.6978 31.0503 38.7739 31.2106Z" fill="#46A358"/>
<path d="M36.2917 32.9283C36.3348 33.1083 36.3745 33.2882 36.4175 33.4714C36.4572 33.6448 36.6657 33.7397 36.8279 33.6906C37.0099 33.6383 37.0893 33.4551 37.0496 33.285C37.0066 33.105 36.9669 32.9251 36.9239 32.7419C36.8841 32.5685 36.6756 32.4736 36.5135 32.5227C36.3315 32.575 36.252 32.7582 36.2917 32.9283Z" fill="#46A358"/>
<path d="M38.3802 36.3467C38.5325 36.6543 38.6847 36.9618 38.8336 37.2661C38.9131 37.4264 39.148 37.4591 39.2903 37.374C39.4558 37.2759 39.479 37.0829 39.3996 36.9225C39.2473 36.615 39.0951 36.3075 38.9462 36.0032C38.8667 35.8429 38.6317 35.8102 38.4894 35.8952C38.324 35.9967 38.3008 36.1897 38.3802 36.3467Z" fill="#46A358"/>
<path d="M40.8523 35.4217C40.9682 35.6376 41.0807 35.8536 41.1965 36.0695C41.3951 36.4425 41.9577 36.0989 41.7625 35.7292C41.6466 35.5133 41.5341 35.2974 41.4183 35.0815C41.2164 34.7085 40.6538 35.0487 40.8523 35.4217Z" fill="#46A358"/>
<path d="M41.6068 40.0994C41.7028 40.2794 41.7988 40.4593 41.8981 40.636C42.0999 41.009 42.6626 40.6654 42.464 40.2957C42.368 40.1158 42.272 39.9359 42.1727 39.7592C41.9709 39.3862 41.4049 39.7265 41.6068 40.0994Z" fill="#46A358"/>
<path d="M42.7818 38.4406C42.8943 38.6206 43.0101 38.8005 43.1227 38.9805C43.3477 39.3371 43.9136 38.9968 43.6886 38.6402C43.5761 38.4603 43.4602 38.2803 43.3477 38.1004C43.1193 37.7438 42.5534 38.084 42.7818 38.4406Z" fill="#46A358"/>
<path d="M44.0989 43.4859C44.1916 43.6495 44.2875 43.8098 44.3802 43.9734C44.592 44.3398 45.1546 43.9963 44.9461 43.6331C44.8535 43.4696 44.7575 43.3092 44.6648 43.1457C44.453 42.7792 43.8871 43.1195 44.0989 43.4859Z" fill="#46A358"/>
<path d="M33.4258 41.4635C33.6475 41.5682 33.8726 41.6697 34.0943 41.7744C34.4782 41.9543 34.8025 41.3818 34.4153 41.2018C34.1936 41.0971 33.9685 40.9957 33.7468 40.891C33.3662 40.7143 33.0419 41.2836 33.4258 41.4635Z" fill="#46A358"/>
<path d="M35.5339 42.4172C35.7789 42.5906 36.0238 42.7673 36.2654 42.9407C36.411 43.0454 36.636 42.957 36.7154 42.8131C36.8114 42.6429 36.732 42.4728 36.5864 42.3681C36.3415 42.1947 36.0966 42.0181 35.855 41.8447C35.7094 41.74 35.4843 41.8283 35.4049 41.9722C35.3122 42.1424 35.3916 42.3125 35.5339 42.4172Z" fill="#46A358"/>
<path d="M35.2095 41.4152C35.3783 41.4512 35.5339 41.5068 35.6861 41.5919C36.0601 41.7947 36.3811 41.2222 36.0071 41.0193C35.8085 40.9114 35.5934 40.8296 35.3717 40.7805C34.958 40.6889 34.7925 41.3236 35.2095 41.4152Z" fill="#46A358"/>
<path d="M37.1491 42.8122C37.298 42.9169 37.4469 43.0249 37.5959 43.1296C37.7415 43.231 37.9665 43.1459 38.046 43.002C38.1419 42.8319 38.0625 42.6585 37.9169 42.557C37.768 42.4524 37.619 42.3444 37.4701 42.2397C37.3245 42.1383 37.0994 42.2233 37.02 42.3673C36.9273 42.5374 37.0035 42.7075 37.1491 42.8122Z" fill="#46A358"/>
<path d="M37.1027 43.79C37.1788 43.8979 37.2549 44.0059 37.331 44.1139C37.5726 44.4574 38.1385 44.1204 37.8969 43.7736C37.8208 43.6656 37.7447 43.5577 37.6686 43.4497C37.427 43.1029 36.8577 43.4432 37.1027 43.79Z" fill="#46A358"/>
<path d="M38.6018 44.3173C38.7507 44.4416 38.8996 44.5659 39.0519 44.6902C39.1876 44.8047 39.3894 44.8146 39.5185 44.6804C39.6376 44.5594 39.6476 44.3304 39.5086 44.2191C39.3596 44.0948 39.2107 43.9705 39.0585 43.8461C38.9228 43.7316 38.7209 43.7218 38.5918 43.856C38.4727 43.9737 38.4628 44.2028 38.6018 44.3173Z" fill="#46A358"/>
<path d="M72.7626 34.6785C72.4085 34.6131 72.0577 34.6196 71.7069 34.7079C71.2932 34.8126 71.4819 35.4408 71.8955 35.3361C72.1272 35.2772 72.3622 35.2674 72.5972 35.3132C73.0175 35.3917 73.1796 34.757 72.7626 34.6785Z" fill="#46A358"/>
<path d="M70.4791 35.3564C70.3534 35.4513 70.2243 35.5429 70.0986 35.6378C69.9562 35.7425 69.8901 35.9257 69.9893 36.0893C70.0754 36.23 70.3004 36.3052 70.4461 36.1973C70.5718 36.1024 70.7009 36.0108 70.8266 35.9159C70.969 35.8112 71.0351 35.628 70.9359 35.4644C70.8498 35.3237 70.6248 35.2518 70.4791 35.3564Z" fill="#46A358"/>
<path d="M70.585 35.0353C71.0119 35.0255 70.9986 34.3712 70.5717 34.381C70.1448 34.3908 70.158 35.0451 70.585 35.0353Z" fill="#46A358"/>
</g>
<g clip-path="url(#clip2_562_3481)">
<path d="M37.3859 48.0697C35.0447 54.0843 33.3971 60.3696 32.8568 66.8242C32.3966 72.3412 32.5367 78.2914 35.5583 83.1044C35.9051 83.6561 36.7589 83.1281 36.412 82.573C33.3804 77.7465 33.3871 71.6913 33.9141 66.1777C34.501 60.0345 36.1285 54.0471 38.3564 48.3202C38.5898 47.7144 37.6193 47.4707 37.3859 48.0697Z" fill="black" fill-opacity="0.64"/>
<path d="M67.7883 47.1391C73.1144 51.2007 73.121 58.647 73.6947 64.7597C73.9848 67.8431 74.385 70.9367 74.5251 74.0337C74.6552 76.8632 74.4217 79.8688 72.2139 81.8725C71.7337 82.3092 72.4574 83.0098 72.9343 82.5766C74.8786 80.8131 75.4789 78.2882 75.5456 75.726C75.6424 72.0773 75.032 68.3677 74.6919 64.7427C74.0949 58.3728 74.0215 50.6354 68.4786 46.408C67.9717 46.0188 67.2747 46.7465 67.7883 47.1391Z" fill="black" fill-opacity="0.64"/>
<path d="M35.7582 83.309C38.583 84.3413 41.4712 84.5986 44.4427 84.8524C47.7311 85.1333 51.0495 85.5564 54.3546 85.438C57.7096 85.3195 61.0747 84.8355 64.4098 84.4699C67.328 84.1484 70.2228 83.7422 72.9443 82.5644C73.5279 82.3105 73.2511 81.3324 72.6574 81.5896C69.836 82.8115 66.8411 83.1905 63.8162 83.5155C60.6679 83.8539 57.4995 84.3109 54.3345 84.4226C51.2329 84.5342 48.1246 84.1518 45.0364 83.8912C41.9581 83.6272 38.9365 83.397 36.005 82.3274C35.398 82.1007 35.1579 83.089 35.7582 83.309Z" fill="black" fill-opacity="0.64"/>
<path d="M37.6258 48.6385C39.9537 49.6031 42.3316 50.4561 44.8429 50.7573C47.4543 51.0687 50.1157 50.6219 52.7437 50.6896C54.2012 50.7268 55.5118 50.9265 56.9826 50.7133C58.2499 50.5271 59.5173 50.2699 60.7479 49.9145C63.2992 49.1767 65.7705 48.1477 68.2752 47.2609C68.8788 47.0477 68.5987 46.0729 67.9884 46.2862C63.0858 48.0225 58.4901 50.0499 53.1973 49.7013C50.9962 49.5557 48.805 49.8841 46.6105 49.8637C43.6557 49.8333 40.8142 48.872 38.1061 47.7517C37.5225 47.508 37.0289 48.3914 37.6258 48.6385Z" fill="black" fill-opacity="0.64"/>
<path d="M7.6636 51.6954C13.2665 52.5889 18.4792 55.2798 22.3846 59.4734C26.1633 63.5316 28.2877 68.8794 32.4099 72.6465C32.8868 73.0831 33.5838 72.352 33.1035 71.9154C28.7346 67.9215 26.5501 62.1439 22.3479 57.9909C18.4125 54.1019 13.3232 51.5735 7.91039 50.7105C7.27673 50.6089 7.0266 51.5939 7.6636 51.6954Z" fill="black" fill-opacity="0.64"/>
<path d="M8.53734 49.8782C13.6233 48.7003 19.0295 49.401 23.5985 51.997C27.2438 54.0684 30.2353 57.3414 34.5876 57.7882C35.2279 57.8525 35.2013 56.8371 34.5676 56.7728C29.685 56.2718 26.1632 51.8075 21.7609 49.973C17.4687 48.1859 12.7629 47.8609 8.25386 48.9034C7.62353 49.049 7.91035 50.0237 8.53734 49.8782Z" fill="black" fill-opacity="0.64"/>
<path d="M7.7236 49.1979C7.34006 49.7327 7.09327 50.3588 7.00656 51.0121C6.96987 51.2862 7.0866 51.5536 7.37008 51.6281C7.60687 51.6924 7.94038 51.5333 7.97706 51.2591C8.05377 50.677 8.25721 50.1659 8.59739 49.6887C8.75747 49.4653 8.6174 49.1234 8.40395 48.9982C8.14715 48.8526 7.88035 48.9779 7.7236 49.1979Z" fill="black" fill-opacity="0.64"/>
<path d="M71.8103 50.1249C73.8781 46.1073 80.4482 45.5895 84.1568 47.4307C88.1755 49.4277 90.0298 54.2644 88.3823 58.4952C86.9482 62.1811 83.2629 63.9851 80.2314 66.1107C78.954 67.0076 77.5333 68.0163 76.6495 69.3397C75.7257 70.724 75.8457 72.484 74.9319 73.865C74.5718 74.4099 75.4489 74.8973 75.8057 74.3591C76.3827 73.4893 76.5494 72.5619 76.8062 71.5668C77.1698 70.1757 77.8968 69.2821 78.9407 68.3717C80.7383 66.8046 82.8461 65.6707 84.7604 64.2661C88.1488 61.7783 90.5267 58.2447 89.8964 53.8176C89.3194 49.7865 86.1244 46.4526 82.1791 45.7181C78.2036 44.9768 72.9642 45.691 70.9332 49.6341C70.6364 50.2095 71.5102 50.7037 71.8103 50.1249Z" fill="black" fill-opacity="0.64"/>
<path d="M72.8242 52.6802C74.2082 49.8777 77.3599 49.1534 80.2214 49.3768C82.129 49.5257 83.3063 50.2872 84.3035 51.9491C85.4074 53.7836 85.3541 55.3372 84.7304 57.2935C83.7499 60.36 81.9823 61.7816 79.2642 63.2201C77.4833 64.161 74.7652 65.393 74.0548 67.4746C73.8447 68.094 74.8152 68.3377 75.0253 67.725C75.6723 65.8296 78.8473 64.5976 80.4815 63.721C81.8989 62.9628 83.2263 62.1268 84.1834 60.7899C85.6976 58.6778 86.9416 55.2289 85.8443 52.7276C84.5036 49.6678 82.4525 48.3106 79.1775 48.3343C76.2627 48.3546 73.3245 49.4106 71.9537 52.186C71.6636 52.7682 72.5374 53.2624 72.8242 52.6802Z" fill="black" fill-opacity="0.64"/>
<path d="M54.3078 60.0242C51.3663 60.4676 48.8817 62.688 48.5849 65.7917C48.3014 68.7499 50.2691 72.6017 53.6108 72.3749C56.6591 72.1684 59.3672 69.1696 59.6473 66.1708C59.9575 62.8707 57.5195 59.9938 54.2078 60.1393C53.5641 60.1664 53.5841 61.1818 54.2278 61.1547C57.1327 61.0261 59.1337 63.7203 58.5901 66.5566C58.1499 68.8514 55.9687 71.1666 53.5908 71.3629C50.6693 71.6032 49.1785 67.8496 49.6421 65.4126C50.0856 63.0772 52.0567 61.3849 54.3279 61.043C54.9549 60.9449 54.9448 59.9261 54.3078 60.0242Z" fill="black" fill-opacity="0.64"/>
<path d="M54.8815 60.4676C54.7048 58.315 58.0365 55.042 59.7041 57.5331C60.221 58.3048 60.7213 59.6756 60.5078 60.6267C60.2777 61.6455 59.2938 62.407 58.5401 63.0332C58.0432 63.4461 58.7702 64.1468 59.2605 63.7372C60.4478 62.7523 61.6684 61.571 61.555 59.8821C61.4616 58.5011 60.7079 56.6802 59.5206 55.922C56.986 54.3008 53.6776 58.0138 53.881 60.4913C53.9344 61.1378 54.9349 61.1209 54.8815 60.4676Z" fill="black" fill-opacity="0.64"/>
<path d="M59.5274 63.9655C60.7814 63.2107 64.0264 63.4104 63.6896 65.5901C63.3694 67.6683 60.718 67.7529 59.1472 67.7732C58.5035 67.78 58.5235 68.7954 59.1672 68.7886C61.3717 68.7615 65.227 68.0575 64.6767 64.8929C64.2432 62.4085 60.788 62.0227 59.0038 63.099C58.4501 63.4341 58.9704 64.3006 59.5274 63.9655Z" fill="black" fill-opacity="0.64"/>
<path d="M58.52 68.9747C60.2743 69.7599 62.2487 72.092 60.5811 73.9738C58.6301 76.1739 55.8086 73.9975 55.0883 71.8753C54.8781 71.2593 53.9176 71.5436 54.1278 72.1664C55.0616 74.908 58.4267 77.2773 61.0214 74.952C63.5427 72.6944 61.5383 69.2218 59.007 68.0845C58.4233 67.8239 57.9331 68.7107 58.52 68.9747Z" fill="black" fill-opacity="0.64"/>
<path d="M53.6476 72.128C53.7377 73.8338 53.2674 76.3723 51.0063 76.0677C49.9791 75.9289 49.1886 74.9914 49.2353 73.9286C49.2754 72.9741 49.939 71.8606 50.3026 70.9873C50.5494 70.3916 49.6789 69.8907 49.4288 70.4932C48.8985 71.7726 47.978 73.2652 48.3182 74.7105C48.595 75.8816 49.5055 76.8123 50.6728 77.0459C53.651 77.645 54.7749 74.5277 54.6482 72.1043C54.6148 71.4544 53.6143 71.4713 53.6476 72.128Z" fill="black" fill-opacity="0.64"/>
<path d="M50.1656 69.7261C48.3013 70.508 45.4232 70.3083 44.7728 67.9356C44.4894 66.8931 44.8062 65.6611 45.77 65.0959C46.7072 64.5476 47.9178 64.6931 48.9383 64.8183C49.5687 64.8962 49.8221 63.9112 49.1851 63.8334C47.7711 63.6608 46.1669 63.5085 44.9496 64.4291C43.9391 65.194 43.5288 66.5344 43.7223 67.7698C44.2225 70.9615 47.9011 71.7637 50.4491 70.6975C51.0428 70.4538 50.7626 69.4756 50.1656 69.7261Z" fill="black" fill-opacity="0.64"/>
<path d="M49.5454 63.948C47.8612 63.0341 46.9808 59.6765 48.4582 58.2245C50.3992 56.3189 52.7838 59.0199 53.9577 60.4821C54.3646 60.9864 55.0516 60.2519 54.6514 59.751C53.1173 57.842 49.7989 54.9211 47.5311 57.6728C45.8635 59.7002 46.8607 63.6434 49.0585 64.8381C49.6255 65.1462 50.1157 64.2594 49.5454 63.948Z" fill="black" fill-opacity="0.64"/>
<path d="M51.153 71.4117C50.3626 72.1834 49.849 74.2718 51.0629 74.9047C52.517 75.6662 53.1607 73.077 53.3541 72.1428C53.4408 71.7163 52.7938 71.5505 52.7071 71.9769C52.6204 72.4 52.5104 72.8163 52.3569 73.2225C52.2802 73.4222 52.1969 73.6219 52.0968 73.8114C51.9434 74.1059 51.8533 74.2954 51.4998 74.2548C50.546 74.1364 51.1997 72.3053 51.6366 71.8822C51.9434 71.5776 51.4631 71.1105 51.153 71.4117Z" fill="black" fill-opacity="0.64"/>
<path d="M55.4519 71.4589C55.2818 72.4337 56.369 73.1986 57.1461 73.5472C57.9331 73.8992 59.0304 74.0177 59.7674 73.466C60.4711 72.938 60.3611 71.9801 60.0576 71.249C59.644 70.2539 58.7936 69.5838 57.8098 69.2318C57.4029 69.0862 57.2428 69.7462 57.6463 69.8884C58.24 70.1016 58.7736 70.4604 59.1504 70.9816C59.2805 71.1644 59.3806 71.3573 59.4639 71.5672C59.6574 72.0613 59.6874 72.2847 59.3439 72.7146C59.0504 73.0801 58.897 73.1647 58.4501 73.1681C58.1699 73.1681 57.8798 73.1106 57.6163 73.0158C57.2128 72.8703 55.9955 72.2272 56.0989 71.6315C56.1722 71.1983 55.5286 71.029 55.4519 71.4589Z" fill="black" fill-opacity="0.64"/>
<path d="M59.3206 67.078C60.1577 67.2912 60.9914 66.9256 61.6951 66.4755C62.2087 66.1472 62.8857 65.5481 62.8257 64.8542C62.7757 64.2755 62.2087 64.0013 61.7018 63.9404C60.828 63.8321 59.9709 64.2145 59.2605 64.6951C58.9037 64.9355 59.2505 65.5176 59.6074 65.2739C59.9776 65.0201 60.3711 64.7967 60.808 64.685C61.2115 64.5801 62.3855 64.4108 62.0286 65.2604C61.7151 66.0152 60.1943 66.6007 59.484 66.4213C59.0671 66.3164 58.9037 66.973 59.3206 67.078Z" fill="black" fill-opacity="0.64"/>
<path d="M56.209 60.759C56.1556 60.2445 56.2624 59.7334 56.6292 59.3544C56.896 59.0734 57.543 58.7011 57.9232 58.9177C58.2601 59.1107 58.2367 59.923 58.2367 60.2987C58.2334 60.8368 58.12 61.3479 57.9432 61.8522C57.7998 62.2618 58.4468 62.4243 58.5903 62.0181C58.8771 61.199 58.9771 60.3393 58.8404 59.4762C58.747 58.8839 58.647 58.295 57.9899 58.207C56.5358 58.0073 55.4053 59.3781 55.5487 60.7759C55.5853 61.2024 56.2524 61.1922 56.209 60.759Z" fill="black" fill-opacity="0.64"/>
<path d="M50.0158 63.0246C49.4988 62.3646 49.0553 61.1664 49.2287 60.3168C49.3321 59.8024 49.4522 59.6534 49.9791 59.5993C50.506 59.5451 50.6361 59.7042 51.0163 60.0156C51.4032 60.3304 51.78 60.6553 52.1636 60.9735C52.4937 61.2476 52.9573 60.7636 52.6238 60.4861C51.6833 59.7008 50.1725 57.89 48.9752 59.2676C48.0481 60.3371 48.6717 62.395 49.4455 63.38C49.709 63.715 50.2826 63.3664 50.0158 63.0246Z" fill="black" fill-opacity="0.64"/>
<path d="M48.8185 65.6598C47.5178 65.1318 45.8202 66.3063 46.0203 67.7888C46.2071 69.1934 48.4383 69.7147 49.4421 68.9227C49.7756 68.6587 49.4321 68.0765 49.0953 68.3439C48.5483 68.7771 47.1876 68.662 46.7874 68.0156C46.2004 67.078 47.6312 65.8968 48.4983 66.2522C48.8885 66.4112 49.2153 65.8223 48.8185 65.6598Z" fill="black" fill-opacity="0.64"/>
</g>
</g>
<defs>
<clipPath id="clip0_562_3481">
<rect width="92" height="92" fill="white" transform="translate(0 0.453125)"/>
</clipPath>
<clipPath id="clip1_562_3481">
<rect width="44" height="49" fill="white" transform="translate(31 0.453125)"/>
</clipPath>
<clipPath id="clip2_562_3481">
<rect width="83" height="40" fill="white" transform="translate(7 45.4531)"/>
</clipPath>
</defs>
</svg>
