<svg width="92" height="93" viewBox="0 0 92 93" fill="none" xmlns="http://www.w3.org/2000/svg">
<g clip-path="url(#clip0_562_3364)">
<circle cx="37" cy="53.4531" r="37" fill="#46A358" fill-opacity="0.13"/>
<g clip-path="url(#clip1_562_3364)">
<path d="M22.2488 41.2287C39.0215 39.4759 55.9382 42.1665 72.6697 39.7421C73.4514 39.6275 73.1181 38.4439 72.3406 38.5586C55.7283 40.9625 38.9063 38.2596 22.2488 40.0001C21.4671 40.082 21.4589 41.3106 22.2488 41.2287Z" fill="black" fill-opacity="0.64"/>
<path d="M22.0841 40.0254C20.4467 40.5332 20.6524 42.6627 21.5205 43.793C22.9439 45.6441 26.1405 45.685 28.2263 45.4885C29.012 45.4148 29.0162 44.1862 28.2263 44.2599C26.8769 44.3868 25.4781 44.3746 24.1658 43.9896C23.4829 43.7889 22.7629 43.5064 22.3721 42.8675C22.1705 42.5358 21.7838 41.4055 22.4132 41.213C23.1702 40.9755 22.8452 39.7878 22.0841 40.0254Z" fill="black" fill-opacity="0.64"/>
<path d="M69.7816 40.128C70.6496 40.0747 71.4889 39.9273 72.3528 39.8126C73.7228 39.6283 74.4263 39.9969 74.6649 41.4303C74.8624 42.622 74.1095 42.9701 73.0481 43.3059C72.5462 43.4656 72.0196 43.5639 71.5012 43.6663C70.1148 43.9366 68.7243 44.0717 67.3132 44.1209C66.5233 44.1495 66.5192 45.3781 67.3132 45.3494C69.7199 45.2634 76.4792 45.1733 76.2159 41.3852C76.15 40.4392 75.2326 39.1328 74.3728 38.7069C73.0892 38.068 71.0898 38.8175 69.7775 38.8994C68.9917 38.9485 68.9876 40.1771 69.7816 40.128Z" fill="black" fill-opacity="0.64"/>
<path d="M24.0548 45.2264C23.8861 47.8269 20.924 49.2971 19.3525 51.0827C18.1183 52.4874 17.1474 54.105 16.4439 55.8291C14.93 59.5231 14.642 63.6634 15.4113 67.558C16.9952 75.5479 23.0592 82.1413 30.633 84.9711C31.3777 85.2496 31.6986 84.062 30.9622 83.7876C23.0962 80.8472 16.9829 73.4798 16.2999 65.0312C15.9749 61.0178 16.8265 56.8406 19.0769 53.462C20.9446 50.6609 25.0545 48.8671 25.289 45.2264C25.3383 44.4401 24.1042 44.4401 24.0548 45.2264Z" fill="black" fill-opacity="0.64"/>
<path d="M70.8225 44.7022C70.8225 47.9333 73.1798 49.9605 75.5782 51.7665C77.6393 53.3145 79.2356 54.8216 80.2517 57.2501C81.1362 59.3592 81.6258 61.6361 81.7368 63.9172C82.14 72.3084 77.2444 80.0977 69.7199 83.7629C69.0082 84.111 69.6294 85.1717 70.3411 84.8236C77.3308 81.4204 82.2593 74.5035 82.9176 66.7552C83.2508 62.8361 82.5679 58.5196 80.5685 55.0837C78.3675 51.2956 72.0567 49.5592 72.0525 44.7022C72.0567 43.9118 70.8225 43.9118 70.8225 44.7022Z" fill="black" fill-opacity="0.64"/>
<path d="M30.2668 84.0701C29.4687 85.8352 30.9003 87.3586 32.6776 87.4405C34.607 87.5347 36.6435 87.0883 38.577 87.0064C40.8191 86.9082 43.0613 86.9041 45.3034 86.9368C53.6712 87.0638 62.0349 87.6985 70.3658 86.5682C70.6496 86.5314 70.7936 86.2201 70.8183 85.9744C70.8841 85.2864 70.8265 84.7786 70.6249 84.1316C70.3904 83.378 69.2015 83.7015 69.436 84.4592C69.6458 84.9547 69.6952 85.4625 69.5841 85.9744C69.7363 85.7779 69.8844 85.5813 70.0366 85.3806C63.5407 86.2611 56.9871 86.04 50.4541 85.8352C47.2863 85.7369 44.1144 85.6468 40.9467 85.7C39.4986 85.7246 38.0504 85.7819 36.6023 85.8802C35.8124 85.9335 35.0267 86.0072 34.2409 86.085C33.6608 86.1423 30.4437 86.6379 31.3282 84.6803C31.6532 83.9718 30.5918 83.3494 30.2668 84.0701Z" fill="black" fill-opacity="0.64"/>
<path d="M22.0801 51.6768C17.0528 57.832 16.662 66.4239 21.175 72.9764C21.3972 73.2999 21.932 72.9928 21.7098 72.6651C17.3614 66.3543 17.6617 58.0573 22.5203 52.1068C22.763 51.8079 22.331 51.3697 22.0801 51.6768Z" fill="black" fill-opacity="0.64"/>
<path d="M22.4133 75.2579C22.8165 75.8394 23.2773 76.3759 23.7915 76.8633C24.0795 77.1335 24.5156 76.7035 24.2276 76.4292C23.7504 75.9787 23.3225 75.4872 22.944 74.9508C22.7219 74.6272 22.1871 74.9303 22.4133 75.2579Z" fill="black" fill-opacity="0.64"/>
<path d="M25.865 78.792C26.264 78.792 26.264 78.1777 25.865 78.1777C25.4659 78.1777 25.4659 78.792 25.865 78.792Z" fill="black" fill-opacity="0.64"/>
<path d="M69.6294 44.7358C69.3126 45.9153 69.0411 47.1029 69.506 48.2824C69.938 49.3758 70.8142 50.3628 71.5589 51.2678C73.3443 53.4301 76.9976 55.6129 77.1703 58.627C77.1909 59.0202 77.808 59.0243 77.7874 58.627C77.6599 56.3705 75.9896 54.9249 74.451 53.4588C73.4595 52.5128 72.5257 51.5094 71.67 50.4365C71.094 49.7116 70.444 48.9458 70.1108 48.0735C69.7035 47.0128 69.938 45.9685 70.2218 44.9038C70.3247 44.5188 69.7282 44.355 69.6294 44.7358Z" fill="black" fill-opacity="0.64"/>
<path d="M77.4378 60.0511C77.5242 60.8374 77.6105 61.6237 77.6969 62.41C77.7381 62.7991 78.3593 62.8032 78.314 62.41C78.2276 61.6237 78.1412 60.8374 78.0549 60.0511C78.0137 59.6621 77.3966 59.658 77.4378 60.0511Z" fill="black" fill-opacity="0.64"/>
<path d="M77.4954 64.0279C77.5406 64.2572 77.5036 64.4742 77.4172 64.6872C77.3555 64.8428 77.4872 65.023 77.6311 65.064C77.808 65.1131 77.9479 65.0025 78.0096 64.851C78.1372 64.5316 78.1536 64.1999 78.0878 63.864C78.0179 63.4791 77.4213 63.6429 77.4954 64.0279Z" fill="black" fill-opacity="0.64"/>
<path d="M50.7423 59.5354C52.2151 56.7506 54.9879 54.9282 58.2091 55.0879C62.0434 55.2763 66.0751 58.5976 63.3887 62.5208C61.813 64.8183 58.9826 66.3049 56.8968 68.115C54.5806 70.1258 52.4619 72.3413 50.5078 74.7084C50.0059 75.3145 50.8739 76.1868 51.3799 75.5766C54.3585 71.9686 57.7278 68.9177 61.4304 66.0674C63.9029 64.159 66.6387 61.2636 65.1371 57.9096C63.8947 55.133 60.4636 53.7692 57.5715 53.8511C54.1651 53.9494 51.2442 55.9479 49.6726 58.9129C49.3065 59.6132 50.372 60.2357 50.7423 59.5354Z" fill="black" fill-opacity="0.64"/>
<path d="M50.4502 58.5806C47.8131 55.6279 44.5219 52.5851 40.2516 52.8063C37.0838 52.9701 34.3563 55.3617 33.8996 58.511C33.336 62.3483 36.2158 65.7146 39.0215 67.9383C42.469 70.6699 47.6691 71.6159 50.2486 75.318C50.697 75.9651 51.7666 75.3508 51.3141 74.6996C49.7055 72.3899 47.3647 71.2023 44.8798 70.0065C41.7203 68.4871 38.606 66.6074 36.5737 63.6752C34.3069 60.4112 34.6813 55.4191 39.075 54.2233C43.3741 53.0561 46.9944 56.5617 49.5739 59.4488C50.1046 60.0426 50.9767 59.1704 50.4502 58.5806Z" fill="black" fill-opacity="0.64"/>
</g>
<g clip-path="url(#clip2_562_3364)">
<path d="M46.472 13.0806C45.2831 15.2337 43.4689 16.9586 41.1405 17.8517C40.2314 18.2023 39.0343 18.182 39.1536 16.9382C39.2276 16.1634 40.0668 15.4906 40.6757 15.1277C41.7123 14.5079 43.0411 14.304 44.1559 13.8228C44.8799 13.5088 44.2547 12.4527 43.5347 12.7666C41.5437 13.6271 39.3634 13.8309 38.2321 15.9188C37.6274 17.0361 37.4299 18.5897 38.7916 19.2259C40.2684 19.915 42.3006 18.8018 43.5265 18.0188C45.2296 16.9341 46.5666 15.4539 47.5333 13.6964C47.92 13.0072 46.8546 12.3874 46.472 13.0806Z" fill="#46A358"/>
<path d="M43.8968 12.5705C42.3994 12.7336 40.9143 12.7417 39.4293 12.4644C38.8863 12.3625 38.3474 12.2238 37.8208 12.0567C37.3765 11.9262 36.9487 11.7671 36.525 11.5755C35.8955 10.7844 35.9573 10.344 36.7183 10.2461C38.948 8.54159 42.4323 10.3317 44.6209 11.1595C45.3655 11.4409 45.6863 10.2583 44.95 9.98106C43.0453 9.25929 40.9555 8.17459 38.8616 8.40703C37.6604 8.53752 34.8918 9.0554 34.5709 10.5519C33.8304 14.0181 42.1073 13.9936 43.8968 13.7979C44.6785 13.7082 44.6867 12.4848 43.8968 12.5705Z" fill="#46A358"/>
<path d="M45.353 10.0032C43.4812 8.53114 41.8192 6.23943 41.9097 3.75605C41.9509 2.65097 42.6584 2.18202 43.6828 2.67951C44.2463 2.95272 44.6372 3.65003 44.9457 4.17606C45.6615 5.40756 45.9618 6.81439 46.2251 8.19677C46.3732 8.96747 47.5621 8.64124 47.414 7.87054C47.019 5.80718 46.4554 3.65818 44.9169 2.11678C44.0078 1.20743 42.4939 0.163515 41.4243 1.38685C38.9231 4.24538 42.1977 9.06941 44.4808 10.8677C45.0979 11.353 45.9782 10.4926 45.353 10.0032Z" fill="#46A358"/>
<path d="M47.3853 8.20827C47.6568 6.24277 48.5207 2.50344 50.7998 1.8673C52.9184 1.2801 52.7086 4.65651 52.1162 5.77383C51.5197 6.8993 50.3473 7.95544 49.4957 8.89741C48.9691 9.48054 49.8371 10.3491 50.3678 9.76191C51.5896 8.40808 53.4161 6.85444 53.6794 4.95011C53.8851 3.47395 53.774 1.2434 52.1326 0.590953C50.6352 -0.00440487 49.1543 1.34942 48.3027 2.41373C47.048 3.9796 46.4639 5.92063 46.1923 7.87389C46.0854 8.65275 47.2743 8.98713 47.3853 8.20827Z" fill="#46A358"/>
<path d="M50.454 9.91662C51.8897 8.7259 54.5555 7.89811 56.3079 8.97057C58.5787 10.3652 55.3618 11.2011 54.3004 11.2704C53.165 11.3479 52.0296 11.2786 50.9024 11.1481C50.1167 11.0584 50.1208 12.2817 50.9024 12.3714C52.7454 12.5835 55.2342 12.8567 56.9497 11.9514C58.0152 11.3887 58.7803 10.0267 58.1262 8.88086C57.394 7.59635 55.333 7.28644 53.996 7.32314C52.3381 7.37207 50.8448 8.00821 49.586 9.05212C48.9731 9.55777 49.8493 10.4223 50.454 9.91662Z" fill="#46A358"/>
<path d="M50.5858 12.3315C51.857 12.7964 53.1199 13.4977 53.8439 14.6803C54.749 16.1646 54.7695 18.8967 52.1367 18.387C49.8207 17.9385 48.1464 15.4999 47.6733 13.3836C47.5005 12.6169 46.3116 12.9391 46.4844 13.7098C46.904 15.5937 47.953 17.2575 49.5245 18.4115C50.7586 19.3208 52.9266 20.4055 54.3787 19.3738C55.872 18.3136 55.872 16.1198 55.1974 14.611C54.3993 12.8331 52.7003 11.8014 50.9232 11.1489C50.1662 10.8798 49.8453 12.0624 50.5858 12.3315Z" fill="#46A358"/>
<path d="M38.1046 15.6991C34.5009 17.8522 31.8434 20.25 31.214 24.5643C30.527 29.2496 31.6254 34.1471 32.6291 38.7101C32.7978 39.4808 33.9867 39.1546 33.818 38.3839C32.9294 34.3469 32.0203 30.1631 32.2959 26.0078C32.5962 21.4774 34.9658 19.0021 38.7216 16.7594C39.4045 16.3516 38.7874 15.2914 38.1046 15.6991Z" fill="#46A358"/>
<path d="M54.0085 14.3174C59.0479 14.7088 62.6145 18.7214 63.9679 23.317C65.4407 28.3205 64.6179 33.589 63.8157 38.6291C63.6923 39.3998 64.8812 39.7301 65.0046 38.9554C65.9425 33.0426 66.8846 26.7628 64.4616 21.062C62.6268 16.7436 58.8175 13.4692 54.0085 13.094C53.2145 13.0328 53.2186 14.2562 54.0085 14.3174Z" fill="#46A358"/>
<path d="M39.3263 18.2364C33.2996 22.5834 35.2536 32.4108 36.4713 38.5194C36.6235 39.2901 37.8165 38.9638 37.6602 38.1931C37.0226 34.9962 36.4302 31.7625 36.4919 28.4921C36.5536 25.3114 37.1583 21.3029 39.9475 19.2926C40.5851 18.8318 39.9721 17.7716 39.3263 18.2364Z" fill="#46A358"/>
<path d="M46.0936 14.2795C43.8516 17.7007 42.4035 21.5257 41.877 25.579C41.6014 27.7035 41.5808 29.8566 41.8358 31.9852C42.1115 34.3096 42.8643 36.5442 43.144 38.8685C43.2345 39.6392 44.4728 39.6515 44.3782 38.8685C43.8927 34.8111 42.6421 31.0759 42.9712 26.9247C43.3127 22.6145 44.7937 18.5122 47.1632 14.8952C47.591 14.2346 46.5256 13.6229 46.0936 14.2795Z" fill="#46A358"/>
<path d="M49.1088 18.0593C50.9477 21.0687 51.3344 24.4736 51.6552 27.9112C51.9885 31.4874 52.26 35.0677 52.4903 38.6521C52.5397 39.4351 53.7738 39.4391 53.7245 38.6521C53.4653 34.5947 53.1732 30.5373 52.7536 26.4921C52.4245 23.3155 51.8692 20.2042 50.1743 17.4394C49.7629 16.7707 48.6933 17.3824 49.1088 18.0593Z" fill="#46A358"/>
<path d="M54.7242 18.6315C59.3193 24.3608 59.4715 31.6764 59.307 38.6576C59.2905 39.4446 60.5246 39.4446 60.5411 38.6576C60.7139 31.2931 60.4177 23.7818 55.5963 17.767C55.1027 17.1513 54.2347 18.0239 54.7242 18.6315Z" fill="#46A358"/>
<path d="M46.9532 20.1238C46.8833 20.3971 46.8174 20.6662 46.7475 20.9394C46.6529 21.3227 47.2453 21.4858 47.344 21.1025C47.4139 20.8293 47.4798 20.5602 47.5497 20.287C47.6443 19.9077 47.0519 19.7446 46.9532 20.1238Z" fill="#46A358"/>
<path d="M48.2861 22.2478C48.2861 22.5537 48.2861 22.8595 48.2861 23.1653C48.2861 23.5609 48.9032 23.5609 48.9032 23.1653C48.9032 22.8595 48.9032 22.5537 48.9032 22.2478C48.9032 21.8523 48.2861 21.8523 48.2861 22.2478Z" fill="#46A358"/>
<path d="M45.3077 24.1842C45.2748 24.6246 45.2377 25.0691 45.2048 25.5095C45.176 25.901 45.7931 25.901 45.8219 25.5095C45.8548 25.0691 45.8918 24.6246 45.9247 24.1842C45.9535 23.7928 45.3365 23.7928 45.3077 24.1842Z" fill="#46A358"/>
<path d="M49.3147 26.326C49.3147 26.7337 49.3147 27.1415 49.3147 27.5493C49.3147 27.9448 49.9318 27.9448 49.9318 27.5493C49.9318 27.1415 49.9318 26.7337 49.9318 26.326C49.9318 25.9304 49.3147 25.9304 49.3147 26.326Z" fill="#46A358"/>
<path d="M46.9492 28.5681C46.9492 29.0085 46.9492 29.453 46.9492 29.8934C46.9492 30.289 47.5663 30.289 47.5663 29.8934C47.5663 29.453 47.5663 29.0085 47.5663 28.5681C47.5663 28.1726 46.9492 28.1726 46.9492 28.5681Z" fill="#46A358"/>
<path d="M45.6123 33.0545C45.6123 33.6661 45.6123 34.2778 45.6123 34.8895C45.6123 35.285 46.2294 35.285 46.2294 34.8895C46.2294 34.2778 46.2294 33.6661 46.2294 33.0545C46.2294 32.6589 45.6123 32.6589 45.6123 33.0545Z" fill="#46A358"/>
<path d="M43.7816 29.0536C43.8515 29.4613 43.9256 29.8691 43.9955 30.2769C44.0613 30.6643 44.6578 30.5012 44.592 30.1138C44.522 29.706 44.448 29.2982 44.3781 28.8904C44.3081 28.5071 43.7116 28.6702 43.7816 29.0536Z" fill="#46A358"/>
<path d="M48.5001 35.094C48.533 35.5017 48.5701 35.9095 48.603 36.3173C48.6359 36.7088 49.2529 36.7088 49.22 36.3173C49.1871 35.9095 49.1501 35.5017 49.1172 35.094C49.0843 34.7025 48.4631 34.6984 48.5001 35.094Z" fill="#46A358"/>
<path d="M50.3472 30.5061C50.3801 30.9138 50.4172 31.3216 50.4501 31.7294C50.483 32.1168 51.1 32.1209 51.0671 31.7294C51.0342 31.3216 50.9972 30.9138 50.9643 30.5061C50.9314 30.1146 50.3143 30.1105 50.3472 30.5061Z" fill="#46A358"/>
<path d="M57.4311 16.8532C57.9083 17.2651 58.3855 17.6769 58.8627 18.0847C59.163 18.3416 59.599 17.9094 59.2987 17.6525C58.8215 17.2406 58.3443 16.8287 57.8671 16.421C57.571 16.1641 57.1308 16.5922 57.4311 16.8532Z" fill="#46A358"/>
<path d="M57.6901 20.2577C57.9575 20.7348 58.229 21.216 58.4964 21.6931C58.6898 22.0356 59.2246 21.7298 59.0312 21.3831C58.7638 20.906 58.4923 20.4249 58.2249 19.9478C58.0275 19.6052 57.4968 19.9151 57.6901 20.2577Z" fill="#46A358"/>
<path d="M60.1627 20.4574C60.4671 20.8692 60.7715 21.2811 61.0759 21.6888C61.3063 22.0028 61.8452 21.697 61.6107 21.3789C61.3063 20.9671 61.0019 20.5552 60.6975 20.1474C60.463 19.8375 59.9282 20.1393 60.1627 20.4574Z" fill="#46A358"/>
<path d="M61.6846 25.7917C61.7874 26.5053 61.8944 27.2189 61.9972 27.9325C62.0548 28.3199 62.6472 28.1568 62.5937 27.7694C62.4909 27.0558 62.3839 26.3422 62.2811 25.6285C62.2194 25.2412 61.627 25.4083 61.6846 25.7917Z" fill="#46A358"/>
<path d="M59.6114 23.961C59.7142 24.2994 59.8171 24.642 59.9199 24.9804C60.0351 25.3556 60.6275 25.1965 60.5164 24.8173C60.4136 24.4789 60.3107 24.1363 60.2079 23.7979C60.0927 23.4227 59.4962 23.5817 59.6114 23.961Z" fill="#46A358"/>
<path d="M62.8818 31.6261C62.9271 32.1113 62.9188 32.5966 62.8407 33.0778C62.779 33.4611 63.3714 33.6283 63.4372 33.2409C63.5236 32.7026 63.5524 32.1684 63.503 31.6261C63.4619 31.2387 62.8448 31.2346 62.8818 31.6261Z" fill="#46A358"/>
<path d="M61.4502 33.5642C61.4502 33.9394 61.4502 34.3105 61.4502 34.6856C61.4502 35.0812 62.0673 35.0812 62.0673 34.6856C62.0673 34.3105 62.0673 33.9394 62.0673 33.5642C62.0673 33.1687 61.4502 33.1687 61.4502 33.5642Z" fill="#46A358"/>
<path d="M62.0879 23.3442C62.2565 23.752 62.4293 24.1598 62.598 24.5676C62.6638 24.7225 62.8037 24.8285 62.9764 24.7796C63.1204 24.7429 63.2562 24.5553 63.1904 24.4045C63.0217 23.9967 62.8489 23.5889 62.6803 23.1811C62.6144 23.0262 62.4746 22.9201 62.3018 22.9691C62.1578 23.0058 62.0262 23.1934 62.0879 23.3442Z" fill="#46A358"/>
<path d="M60.936 30.4041C60.936 30.6406 60.936 30.8812 60.936 31.1177C60.936 31.5132 61.5531 31.5132 61.5531 31.1177C61.5531 30.8812 61.5531 30.6406 61.5531 30.4041C61.5531 30.0085 60.936 30.0085 60.936 30.4041Z" fill="#46A358"/>
<path d="M62.1701 37.2346C62.1537 37.5241 62.0837 37.8014 61.9768 38.0705C61.9151 38.2255 62.0467 38.4049 62.1907 38.4457C62.3676 38.4946 62.5075 38.3845 62.5692 38.2336C62.7008 37.9115 62.7666 37.5812 62.7872 37.2346C62.8119 36.839 62.1948 36.8431 62.1701 37.2346Z" fill="#46A358"/>
<path d="M36.2905 19.336C36.0807 19.6378 35.8709 19.9395 35.657 20.2413C35.4307 20.5675 35.9655 20.8733 36.1918 20.5512C36.4016 20.2494 36.6114 19.9477 36.8253 19.6459C37.0474 19.3197 36.5126 19.0139 36.2905 19.336Z" fill="#46A358"/>
<path d="M34.5297 23.7967C34.4515 24.1678 34.3775 24.5389 34.2993 24.914C34.2212 25.2973 34.8135 25.4645 34.8958 25.0771C34.974 24.706 35.048 24.335 35.1262 23.9598C35.2044 23.5765 34.6079 23.4134 34.5297 23.7967Z" fill="#46A358"/>
<path d="M34.3322 21.5752C34.0072 22.0033 33.7645 22.4764 33.6 22.9861C33.4766 23.3612 34.073 23.5203 34.1965 23.1492C34.3487 22.6884 34.5749 22.2725 34.867 21.8851C35.1056 21.567 34.5667 21.2653 34.3322 21.5752Z" fill="#46A358"/>
<path d="M33.0776 25.6334C33.0035 26.1431 32.9254 26.6488 32.8513 27.1585C32.7937 27.5418 33.3902 27.709 33.4478 27.3216C33.5219 26.8119 33.6 26.3063 33.6741 25.7965C33.7317 25.4091 33.1352 25.242 33.0776 25.6334Z" fill="#46A358"/>
<path d="M33.6947 28.5694C33.6412 29.0791 33.6741 29.5807 33.7728 30.0823C33.8469 30.4697 34.4434 30.3066 34.3693 29.9192C34.2829 29.4706 34.2665 29.0221 34.3158 28.5694C34.3488 28.1779 33.7317 28.182 33.6947 28.5694Z" fill="#46A358"/>
<path d="M34.2006 32.4426C34.2335 32.7484 34.2705 33.0542 34.3034 33.3601C34.3199 33.5232 34.4309 33.6659 34.6119 33.6659C34.7641 33.6659 34.941 33.5272 34.9205 33.3601C34.8876 33.0542 34.8505 32.7484 34.8176 32.4426C34.8012 32.2794 34.6901 32.1367 34.5091 32.1367C34.3569 32.1367 34.1841 32.2754 34.2006 32.4426Z" fill="#46A358"/>
<path d="M33.2008 34.7427C33.4394 35.1301 33.6122 35.5379 33.7192 35.9824C33.8138 36.3657 34.4062 36.2026 34.3156 35.8193C34.1964 35.3299 33.9989 34.865 33.7356 34.4328C33.5258 34.0984 32.9951 34.4083 33.2008 34.7427Z" fill="#46A358"/>
<path d="M34.5173 37.3147C34.5872 37.4859 34.6531 37.6531 34.723 37.8244C34.7847 37.9753 34.9287 38.0854 35.1015 38.0364C35.2496 37.9956 35.3812 37.8162 35.3154 37.6613C35.2455 37.49 35.1796 37.3228 35.1097 37.1515C35.048 37.0007 34.904 36.8906 34.7312 36.9395C34.5872 36.9762 34.4556 37.1597 34.5173 37.3147Z" fill="#46A358"/>
</g>
</g>
<defs>
<clipPath id="clip0_562_3364">
<rect width="92" height="92" fill="white" transform="translate(0 0.453125)"/>
</clipPath>
<clipPath id="clip1_562_3364">
<rect width="68" height="49" fill="white" transform="translate(15 38.4531)"/>
</clipPath>
<clipPath id="clip2_562_3364">
<rect width="35" height="39" fill="white" transform="translate(31 0.453125)"/>
</clipPath>
</defs>
</svg>
