<svg width="124" height="37" fill="none" xmlns="http://www.w3.org/2000/svg"><path d="M27.843 5.39C26.1 8.684 24.435 17.136 31.73 24.61c2.64-2.877 5.56-10.749-3.887-19.22ZM33.71 32.294c-1.163-3.823.866-13.233 17.767-23.653-1.249 8.165-6.654 23.654-17.767 23.654ZM29.773 33.307C11.151 35.394.248 14.71.873 3.425c1.788.3 11.368 4.007 20.909 13.435 9.072 10.85 11.778 16.023 7.991 16.447ZM61.377 31.625V17.532h4.577c.937 0 1.774.15 2.512.447.738.284 1.32.695 1.746 1.235.425.54.638 1.2.638 1.98 0 .922-.234 1.696-.702 2.32-.469.61-1.121 1.072-1.959 1.384-.837.298-1.81.447-2.916.447h-1.831v6.28h-2.065Zm2.065-6.898h1.895c.723 0 1.305-.127 1.745-.383.44-.255.774-.574 1-.958.228-.383.377-.766.448-1.15.085-.382.128-.695.128-.936 0-.085-.022-.255-.064-.51-.029-.256-.12-.547-.277-.874-.142-.326-.376-.638-.703-.936-.312-.298-.752-.526-1.32-.682-.44 0-.936.036-1.49.107a9.833 9.833 0 0 0-1.362.255v6.067Zm8.793 6.898v-14.54h1.789v14.54h-1.789Zm10.763.277-1.725-1.554a8.52 8.52 0 0 1-1.511 1.128 3.218 3.218 0 0 1-1.597.405 2.424 2.424 0 0 1-1.575-.575c-.469-.384-.703-.93-.703-1.64 0-.553.185-1.014.554-1.383.369-.384.837-.689 1.405-.916a9.347 9.347 0 0 1 1.767-.51c.61-.114 1.156-.185 1.639-.213v-2.002c0-1.178-.681-1.767-2.044-1.767-.355 0-.766.043-1.234.128-.455.071-.966.199-1.533.383l-.192-.532c.156-.128.419-.277.788-.447a7.86 7.86 0 0 1 1.277-.447 5.181 5.181 0 0 1 1.469-.213c.809 0 1.433.12 1.873.362.44.227.753.525.937.894.185.355.298.731.34 1.128.043.384.065.731.065 1.044v3.619c0 .482.063.88.191 1.192.142.312.298.553.469.724.184.17.333.298.447.383l-1.107.809Zm-4.024-1a3.41 3.41 0 0 0 1.022-.405 6.09 6.09 0 0 0 .894-.639c.241-.227.362-.39.362-.49v-2.192c-1.064.07-1.916.305-2.555.702-.624.383-.936.795-.936 1.235 0 .44.113.823.34 1.15.242.312.532.525.873.638Zm6.93.723V24.94c0-.496-.071-.894-.213-1.192-.128-.312-.277-.553-.447-.724a3.42 3.42 0 0 0-.426-.404l1.085-.809 1.746 1.554c.525-.497 1.015-.887 1.47-1.17.467-.299 1.014-.448 1.638-.448.327 0 .681.085 1.065.256.397.17.738.49 1.022.958.283.454.425 1.12.425 2v6.664h-1.81v-6.45c0-.667-.12-1.178-.361-1.533-.227-.37-.653-.554-1.277-.554-.61 0-1.313.398-2.108 1.192v7.345h-1.81Zm12.5.256c-.582 0-1.072-.17-1.47-.512-.397-.34-.596-.915-.596-1.724V22.77l-1.724-.34v-.426h1.724v-.767l1.789-1.298v2.065h2.533v.766h-2.533v6.983c0 .397.078.71.234.936.17.227.482.34.936.34.2 0 .42-.027.66-.084.242-.071.476-.15.703-.234v.596c-.312.142-.667.27-1.064.383-.384.128-.781.192-1.193.192Zm2.666 4.428.298-1.555c.795-.028 1.469-.205 2.023-.532a4.806 4.806 0 0 0 1.426-1.235 8.02 8.02 0 0 0 .937-1.468l-4.322-9.516h1.895l3.257 7.216 2.512-7.216h.809l-3.64 9.941a7.936 7.936 0 0 1-1.256 2.257 5.976 5.976 0 0 1-1.81 1.533 4.513 4.513 0 0 1-2.129.575Zm10.508-13.86-.596-3.746v-1.49h1.724v1.49l-.617 3.747h-.511Zm2.38 9.176 3.534-4.492-3.47-5.13h2.108l2.427 3.874 2.852-3.874h1.043l-3.491 4.321 3.811 5.301h-2.108l-2.746-4.023-2.938 4.023h-1.022Z" fill="#000"/></svg>